<?xml version="1.0" standalone="no"?><!DOCTYPE svg PUBLIC "-//W3C//DTD SVG 1.1//EN" "http://www.w3.org/Graphics/SVG/1.1/DTD/svg11.dtd"><svg t="1727169694815" class="icon" viewBox="0 0 1024 1024" version="1.1" xmlns="http://www.w3.org/2000/svg" p-id="16151" xmlns:xlink="http://www.w3.org/1999/xlink" width="200" height="200"><path d="M924.608 152.576l-3.008-21.312-22.528-3.584a488.448 488.448 0 0 0-65.28-4.16c-45.12 0-112.768 5.952-176.896 33.856-49.28 21.312-93.184 72.384-129.408 150.144-3.52 7.68-7.104 15.424-10.048 23.168a347.392 347.392 0 0 0-24.32-52.224 255.616 255.616 0 0 0-85.504-89.088 409.28 409.28 0 0 0-220.16-64.64c-22.016 0-44.544 1.728-66.56 6.528l-20.16 4.736-1.792 19.584c0 0.64-4.736 45.12 5.952 102.656 5.952 33.28 16 64.128 29.696 91.392 16.64 33.856 39.744 63.552 68.864 87.872 40.32 32.64 83.648 56.96 128.192 71.808 33.28 11.264 61.696 20.8 98.56 20.8 7.68 0 15.36 0.576 21.888 0.576 10.112 0.64 19.008 0.64 27.328 0v369.152h64.64V451.84l4.8 0.576c29.696 4.736 60.544 9.472 86.656 9.472 96.192 0 170.368-27.264 220.8-81.28 84.864-91.456 68.864-222.592 68.288-227.968" fill="#2a6049" p-id="16152"></path></svg>