<svg xmlns="http://www.w3.org/2000/svg" xmlns:xlink="http://www.w3.org/1999/xlink" width="15.71514892578125" height="17.28515625" viewBox="0 0 15.71514892578125 17.28515625" fill="none">
<path d="M7.85767 17.2849C9.28065 17.2849 10.471 16.2705 10.7444 14.9277L4.97095 14.9277C5.24444 16.2705 6.4348 17.2849 7.85767 17.2849Z"   fill="#2A6049" >
</path>
<g opacity="0.9">
<path d="M15.6856 13.053C15.7909 12.5454 15.6102 12.0387 15.2165 11.7079C14.0742 10.7501 13.4134 9.34277 13.367 7.85636C13.367 7.85636 13.367 0 7.85759 0C4.82016 0 2.35759 2.46227 2.35759 5.50002L2.35759 7.69046C2.35759 9.24547 1.67634 10.7132 0.481356 11.7236C0.0829761 12.0639 -0.0938196 12.606 0.0491885 13.1348C0.215769 13.75 0.823789 14.1429 1.46198 14.1429L14.2494 14.1429C14.9187 14.1429 15.5498 13.7091 15.6856 13.053Z"   fill="#2A6049" >
</path>
</g>
</svg>
