<svg xmlns="http://www.w3.org/2000/svg" xmlns:xlink="http://www.w3.org/1999/xlink" width="164" height="134" viewBox="0 0 164 134" fill="none">
<rect  x="0" y="0" width="163" height="134" rx="20"    fill="#2A6049" >
</rect>
<g opacity="0.5043">
<path d="M113.13 76.7236C113.13 76.5836 113.2 76.4447 113.27 76.3747L122.074 67.5774C122.284 67.3675 122.633 67.3675 122.842 67.5774C123.053 67.7874 123.053 68.1362 122.842 68.3452L114.038 77.1424C113.829 77.3524 113.48 77.3524 113.27 77.1424C113.2 77.0025 113.13 76.8635 113.13 76.7236Z"   fill="#5F5FFF" >
</path>
<path d="M113.13 67.9263C113.13 67.7874 113.2 67.6474 113.27 67.5774C113.48 67.3675 113.829 67.3675 114.038 67.5774L122.842 76.3747C123.053 76.5836 123.053 76.9336 122.842 77.1424C122.633 77.3524 122.284 77.3524 122.074 77.1424L113.27 68.3452C113.2 68.2062 113.13 68.0663 113.13 67.9263Z"   fill="#5F5FFF" >
</path>
<path d="M140.63 88.9704C140.63 88.6196 140.91 88.4102 141.189 88.4102L153.271 89.1799C153.551 89.1799 153.76 89.4605 153.76 89.7401C153.76 90.0197 153.481 90.2302 153.202 90.2302L141.119 89.4605C140.84 89.4605 140.63 89.25 140.63 88.9704Z"   fill="#E4E4EF" >
</path>
<path d="M146.64 103.711C146.64 103.502 146.71 103.362 146.92 103.222L153.972 99.2395C154.251 99.1005 154.53 99.1695 154.67 99.4495C154.81 99.7287 154.74 100.008 154.461 100.148L147.409 104.13C147.129 104.27 146.85 104.2 146.71 103.921C146.71 103.921 146.64 103.781 146.64 103.711Z"   fill="#E4E4EF" >
</path>
<path d="M163.19 56.7108L162.394 55.6299L145.33 68.2528L158.014 85.3099L163.19 81.4435L163.19 56.7108Z"   fill="#8FACFF" >
</path>
<path d="M119.69 112.73L115.369 123.54L106.61 113.868L119.69 112.73Z"   fill="#8FACFF" >
</path>
<path d="M154.49 53.42L151.818 45L146.53 53.42L154.49 53.42Z"   fill="#8FACFF" >
</path>
<path d="M126.68 102.61C126.68 106.316 129.684 109.32 133.39 109.32C137.096 109.32 140.1 106.316 140.1 102.61C140.1 98.904 137.096 95.8999 133.39 95.8999C129.684 95.8999 126.68 98.904 126.68 102.61Z"   fill="#FFCC3E" >
</path>
<path d="M151.02 80.1134C151.02 79.8757 151.19 79.637 151.474 79.637L156.192 79.6967C156.42 79.6967 156.59 79.8747 156.59 80.1731C156.59 80.4108 156.42 80.5898 156.136 80.5898L151.418 80.5302C151.247 80.5898 151.02 80.3511 151.02 80.1134Z"   fill="#5F5FFF" >
</path>
<path d="M153.36 82.4751L153.42 77.7577C153.42 77.5308 153.598 77.3599 153.896 77.3599C154.134 77.3599 154.313 77.5308 154.313 77.8146L154.253 82.5321C154.253 82.76 154.074 82.9299 153.777 82.9299C153.539 82.9299 153.36 82.703 153.36 82.4751Z"   fill="#5F5FFF" >
</path>
<path d="M149.26 118.524C149.26 118.41 149.317 118.296 149.43 118.183C149.601 118.012 149.885 118.069 150.056 118.239L154.207 123.242C154.378 123.412 154.321 123.697 154.15 123.867C153.98 124.038 153.695 123.981 153.525 123.81L149.373 118.808C149.317 118.751 149.26 118.638 149.26 118.524Z"   fill="#FFCC3E" >
</path>
<path d="M135.1 132.924C135.1 132.81 135.157 132.639 135.27 132.582L138.627 130.135C138.797 130.021 139.082 130.021 139.195 130.248C139.309 130.419 139.309 130.704 139.082 130.818L135.725 133.265C135.555 133.379 135.27 133.379 135.157 133.152C135.157 133.095 135.1 132.981 135.1 132.924Z"   fill="#FFCC3E" >
</path>
<path d="M98.73 92.8441L95.694 86.54L89.39 89.575L92.426 95.88L98.73 92.8441Z"   fill="#8FACFF" >
</path>
</g>
</svg>
