<svg xmlns="http://www.w3.org/2000/svg" xmlns:xlink="http://www.w3.org/1999/xlink" width="163.19500732421875" height="134" viewBox="0 0 163.19500732421875 134" fill="none">
<rect  x="0" y="0" width="163" height="134" rx="20"    fill="#EC744A" >
</rect>
<g opacity="0.501">
<path d="M113.135 76.7285C113.135 76.5885 113.205 76.4496 113.275 76.3795L122.079 67.5823C122.289 67.3723 122.638 67.3723 122.847 67.5823C123.058 67.7922 123.058 68.1411 122.847 68.3501L114.043 77.1473C113.834 77.3573 113.485 77.3573 113.275 77.1473C113.205 77.0074 113.135 76.8684 113.135 76.7285Z"   fill="#5F5FFF" >
</path>
<path d="M113.135 67.9312C113.135 67.7922 113.205 67.6522 113.275 67.5823C113.485 67.3723 113.834 67.3723 114.043 67.5823L122.847 76.3795C123.058 76.5885 123.058 76.9385 122.847 77.1473C122.638 77.3573 122.289 77.3573 122.079 77.1473L113.275 68.3501C113.205 68.2111 113.135 68.0712 113.135 67.9312Z"   fill="#5F5FFF" >
</path>
<path d="M140.635 88.9753C140.635 88.6245 140.915 88.415 141.194 88.415L153.276 89.1847C153.556 89.1847 153.765 89.4653 153.765 89.745C153.765 90.0246 153.486 90.235 153.207 90.235L141.124 89.4653C140.845 89.4653 140.635 89.2549 140.635 88.9753Z"   fill="#E4E4EF" >
</path>
<path d="M146.645 103.716C146.645 103.507 146.715 103.367 146.925 103.226L153.977 99.2444C154.256 99.1053 154.535 99.1744 154.675 99.4544C154.815 99.7335 154.745 100.013 154.466 100.153L147.414 104.135C147.134 104.275 146.855 104.205 146.715 103.926C146.715 103.926 146.645 103.786 146.645 103.716Z"   fill="#E4E4EF" >
</path>
<path d="M163.195 56.7157L162.399 55.6348L145.335 68.2577L158.019 85.3148L163.195 81.4483L163.195 56.7157Z"   fill="#8FACFF" >
</path>
<path d="M119.695 112.735L115.374 123.545L106.615 113.873L119.695 112.735Z"   fill="#8FACFF" >
</path>
<path d="M154.495 53.4249L151.823 45.0049L146.535 53.4249L154.495 53.4249Z"   fill="#8FACFF" >
</path>
<path d="M126.685 102.615C126.685 106.321 129.689 109.325 133.395 109.325C137.101 109.325 140.105 106.321 140.105 102.615C140.105 98.9089 137.101 95.9048 133.395 95.9048C129.689 95.9048 126.685 98.9089 126.685 102.615Z"   fill="#FFCC3E" >
</path>
<path d="M151.025 80.1183C151.025 79.8806 151.195 79.6418 151.479 79.6418L156.197 79.7015C156.425 79.7015 156.595 79.8795 156.595 80.178C156.595 80.4157 156.425 80.5947 156.141 80.5947L151.423 80.535C151.252 80.5947 151.025 80.356 151.025 80.1183Z"   fill="#5F5FFF" >
</path>
<path d="M153.365 82.48L153.425 77.7626C153.425 77.5356 153.603 77.3647 153.901 77.3647C154.139 77.3647 154.318 77.5356 154.318 77.8195L154.258 82.5369C154.258 82.7649 154.079 82.9347 153.782 82.9347C153.544 82.9347 153.365 82.7079 153.365 82.48Z"   fill="#5F5FFF" >
</path>
<path d="M149.265 118.529C149.265 118.415 149.322 118.301 149.435 118.188C149.606 118.017 149.89 118.074 150.061 118.244L154.212 123.247C154.383 123.417 154.326 123.702 154.155 123.872C153.985 124.043 153.7 123.986 153.53 123.815L149.378 118.813C149.322 118.756 149.265 118.643 149.265 118.529Z"   fill="#FFCC3E" >
</path>
<path d="M135.105 132.929C135.105 132.814 135.162 132.644 135.275 132.587L138.632 130.14C138.802 130.026 139.087 130.026 139.2 130.253C139.314 130.424 139.314 130.709 139.087 130.823L135.73 133.27C135.56 133.384 135.275 133.384 135.162 133.157C135.162 133.1 135.105 132.986 135.105 132.929Z"   fill="#FFCC3E" >
</path>
<path d="M98.735 92.849L95.699 86.5449L89.395 89.5799L92.431 95.8849L98.735 92.849Z"   fill="#8FACFF" >
</path>
</g>
</svg>
