<svg xmlns="http://www.w3.org/2000/svg" xmlns:xlink="http://www.w3.org/1999/xlink" width="32" height="32" viewBox="0 0 32 32" fill="none">
<path d="M7.11551 6.00381L7.11551 7.11423L14.3933 7.11423C14.6695 7.11423 14.8933 7.33809 14.8933 7.61423L14.8933 12.1666C14.8933 12.4428 14.6695 12.6666 14.3933 12.6666L5.39331 12.6666C5.11717 12.6666 4.89331 12.4428 4.89331 12.1666L4.89331 6.00381C4.89331 5.33748 5.33771 4.89331 6.00441 4.89331C6.67111 4.89331 7.11551 5.33748 7.11551 6.00381ZM24.8979 6.00381C24.8979 5.33748 25.3423 4.89331 26.009 4.89331C26.6757 4.89331 27.1201 5.33748 27.1201 6.00381L27.1201 12.1666C27.1201 12.4428 26.8963 12.6666 26.6201 12.6666L17.6201 12.6666C17.344 12.6666 17.1201 12.4428 17.1201 12.1666L17.1201 7.61423C17.1201 7.33809 17.344 7.11423 17.6201 7.11423L24.8979 7.11423L24.8979 6.00381Z" fill-rule="evenodd"  fill="#BACAC2" >
</path>
<path     fill="#2A6049"  d="M28.2222 26C28.8889 26 29.3334 25.5557 29.3334 24.8893L29.3334 15.3933C29.3334 15.1172 29.1096 14.8933 28.8334 14.8933L3.16675 14.8933C2.89061 14.8933 2.66675 15.1172 2.66675 15.3933L2.66675 24.8893C2.66675 25.5557 3.11128 26 3.77795 26C4.44461 26 4.88888 25.5557 4.88888 24.8893L4.88888 21.5573L27.1113 21.5573L27.1113 24.8893C27.1113 25.5557 27.5555 26 28.2222 26">
</path>
</svg>
