<?xml version="1.0" standalone="no"?><!DOCTYPE svg PUBLIC "-//W3C//DTD SVG 1.1//EN" "http://www.w3.org/Graphics/SVG/1.1/DTD/svg11.dtd"><svg t="1724943235765" class="icon" viewBox="0 0 1024 1024" version="1.1" xmlns="http://www.w3.org/2000/svg" p-id="22860" xmlns:xlink="http://www.w3.org/1999/xlink" width="200" height="200"><path d="M509.351 941.483c-9.541 0.009-16.494-4.704-25.42-10.562l-15.755-15.936c-15.935-13.067-32.583-24.346-55.319-39.563l-16.828-11.277c-68.489-44.405-126.596-88.257-186.407-143.801-14.828-13.08-16.243-35.708-3.163-50.536 13.082-14.83 35.709-16.245 50.539-3.165a37.986 37.986 0 0 1 2.395 2.32c56.95 52.408 111.876 93.437 176.917 135.387l16.648 11.278c22.557 15.22 39.387 26.675 56.393 40.281a432.919 432.919 0 0 1 42.074-27.032c12.711-7.521 25.778-15.218 39.205-24.348 125.318-85.754 316.699-214.833 316.699-413.553-0.888-114.146-93.881-206.1-208.031-205.701a220.015 220.015 0 0 0-162.734 73.401c-14.104 14.83-37.561 15.42-52.392 1.315-0.45-0.43-0.89-0.866-1.315-1.315a202.292 202.292 0 0 0-154.143-73.401c-114.592-0.793-208.129 91.459-208.922 206.053l-0.004 0.365c0.101 45.34-0.156 69.197 18.969 110.307 8.256 17.997 0.362 39.275-17.634 47.532-17.995 8.256-39.276 0.359-47.533-17.635C52.757 486 48.116 447.361 48 391.693c0.593-154.145 126.03-278.619 280.173-278.028h0.004a268.544 268.544 0 0 1 181.533 71.61 291.449 291.449 0 0 1 189.588-71.61c154.007-0.396 279.227 124.024 279.82 278.028 0 236.135-209.461 378.461-348.029 472.809-15.574 10.564-30.255 19.335-43.144 26.854-12.991 7.227-25.661 16.689-37.589 25.561l-15.404 14.365c-8.641 5.498-15.879 10.57-25.422 10.561l-0.179-0.36z" fill="#ffffff" p-id="22861"></path><path d="M694.814 595.371c-52.016 0-94.186-42.17-94.186-94.187S642.799 407 694.814 407C746.832 407 789 449.168 789 501.185c-0.094 51.977-42.208 94.088-94.186 94.186z m0-133.998c-21.986 0-39.811 17.824-39.811 39.812s17.824 39.812 39.811 39.812 39.812-17.824 39.812-39.812-17.824-39.812-39.812-39.812z" fill="#ffffff" p-id="22862"></path><path d="M446.261 697.896L350.852 504.63l-36.006 130.752-215.176 5.124c-0.258 0.007-0.518 0.01-0.773 0.01-17.272 0-31.475-13.791-31.888-31.152-0.419-17.618 13.524-32.242 31.143-32.661l167.757-3.994L333.842 326 451.78 564.899l52.135-86.675h110.691c17.623 0 31.91 14.287 31.91 31.912 0 17.623-14.287 31.91-31.91 31.91h-74.603l-93.742 155.85z" fill="#ffffff" p-id="22863"></path></svg>