<?xml version="1.0" standalone="no"?><!DOCTYPE svg PUBLIC "-//W3C//DTD SVG 1.1//EN" "http://www.w3.org/Graphics/SVG/1.1/DTD/svg11.dtd"><svg t="1724944095406" class="icon" viewBox="0 0 1024 1024" version="1.1" xmlns="http://www.w3.org/2000/svg" p-id="25176" xmlns:xlink="http://www.w3.org/1999/xlink" width="200" height="200"><path d="M179.2 711.68c2.56 7.168 3.072 14.848 1.024 22.016-7.168 18.944-8.192 39.424-2.048 58.88 11.264 33.28 158.72 13.824 158.72 13.824 60.416-17.92 18.432 196.608 18.432 196.608H455.68v-252.928c0-20.992-19.968-38.4-44.544-38.912H179.2z" fill="#ffffff" p-id="25177" data-spm-anchor-id="a313x.search_index.0.i27.5b803a81qCYI4G" class="selected"></path><path d="M822.272 1018.88h-296.96v-300.544c0-19.456-8.704-38.4-25.088-52.224-16.896-15.36-40.96-24.064-65.536-24.064H126.464l11.776-45.056c1.536-6.144 4.096-11.776 7.168-16.896-46.08-8.192-60.928-30.208-65.536-43.52-4.096-12.288-6.656-36.352 20.992-61.952 31.232-37.376 61.952-79.872 72.704-100.864-2.56-4.608-5.12-9.728-6.656-15.36-5.12-19.968 0-41.472 14.848-64.512 3.072-22.528 14.336-75.776 51.2-129.536 79.872-113.664 212.992-140.8 311.296-143.36 8.192-0.512 75.776-3.072 153.6 20.48 110.08 33.28 188.928 102.4 228.352 200.192 9.216 19.456 67.584 155.648-64 328.192l-1.536 2.048-2.048 2.048c-1.024 1.024-104.96 103.424-81.408 200.704 25.6 81.408 54.272 183.808 49.664 214.528l-4.608 29.696z m-225.28-71.68h154.112c-8.192-37.888-25.6-99.84-42.496-152.576l-0.512-2.048c-32.768-129.536 80.896-250.88 98.816-268.8 108.032-142.848 57.344-246.784 54.784-251.392l-1.536-3.072c-75.264-189.44-309.76-177.152-312.32-177.152h-1.024c-276.992 7.68-293.888 208.384-294.4 217.088l-0.512 10.752-6.144 8.704c-2.56 3.584-4.608 6.656-6.144 9.216l4.608 8.704c7.68 14.848 22.016 41.984-79.872 164.864 2.56 0.512 4.608 0.512 6.656 0.512l3.072 0.512c30.208 4.608 41.984 23.04 46.08 33.28 3.584 8.704 4.608 17.408 4.096 25.6H435.2c42.496 0 82.944 14.848 113.152 41.984 31.232 27.648 49.152 66.56 49.152 105.984V947.2z" fill="#ffffff" p-id="25178" data-spm-anchor-id="a313x.search_index.0.i28.5b803a81qCYI4G" class="selected"></path></svg>