<svg xmlns="http://www.w3.org/2000/svg" xmlns:xlink="http://www.w3.org/1999/xlink" width="17.7691650390625" height="17.76953125" viewBox="0 0 17.7691650390625 17.76953125" fill="none">
<path d="M17.7692 8.09954L9.67151 8.09954L9.67102 0C11.7871 0.126029 13.7718 1.01398 15.2639 2.50616C16.7556 3.99696 17.6423 5.9811 17.7692 8.09954L17.7692 8.09954Z" fill-rule="evenodd"  fill="#FF8D1A" >
</path>
<path   fill-rule="evenodd"  fill="#2A6049"  d="M7.93431 0.708984L7.93431 8.98939L2.0949 14.8131C0.744 13.2545 0 11.2741 0 9.22479C0 6.94161 0.889357 4.79637 2.50431 3.18328C3.95311 1.73309 5.88004 0.855809 7.93431 0.708984ZM8.81909 9.81058L17.0612 9.83597C16.9154 11.8903 16.0389 13.8167 14.587 15.2697C12.9743 16.8813 10.831 17.7694 8.54953 17.7694L8.54587 17.7694C6.4976 17.7703 4.51704 17.0267 2.9557 15.6753L8.81909 9.81058Z">
</path>
</svg>
