<svg xmlns="http://www.w3.org/2000/svg" xmlns:xlink="http://www.w3.org/1999/xlink" width="153.004638671875" height="176.883056640625" viewBox="0 0 153.004638671875 176.883056640625" fill="none">
<g opacity="0.2">
<path d="M142.981 176.883C157.963 80.3226 143.204 0 107.377 0C71.5351 0 5.89183 76.4312 0 176.883L142.981 176.883Z"   fill="url(#linear_fill_Cn-HwNRe0IwC6k0kJcg57)" >
</path>
</g>
<path d="M15.017 145.263C15.6602 146.099 16.5526 146.571 17.4902 146.571L55.9565 146.571C56.8942 146.571 57.7865 146.099 58.4297 145.263C59.0775 144.435 59.4127 143.305 59.3674 142.16L56.5363 73.1583C56.4457 70.9292 54.9419 69.1723 53.1255 69.1723L20.3213 69.1723C18.5049 69.1723 17.001 70.9292 16.9104 73.1583L14.0794 142.16C14.0341 143.305 14.3693 144.435 15.017 145.263Z"   fill="url(#linear_fill_X-u3DWbJIcBNTFR3QjnJv)" >
</path>
<path d="M53.1255 69.1723C54.9419 69.1723 56.4457 70.9292 56.5363 73.1583L59.3674 142.16C59.4127 143.305 59.0775 144.435 58.4297 145.263C57.7865 146.099 56.8942 146.571 55.9565 146.571L17.4902 146.571C16.5526 146.571 15.6602 146.099 15.017 145.263C14.3693 144.435 14.0341 143.305 14.0794 142.16L16.9104 73.1583C17.001 70.9292 18.5049 69.1723 20.3213 69.1723L53.1255 69.1723Z">
</path>
<g  mask="url(#mask-PuzevJwEM0K8EBXXAqIen)">
<path d="M46.0957 68.3269L44.0925 71.6509L29.3552 71.6509L26.8339 68.1476L46.0957 68.3269Z"   fill="url(#linear_fill_KioI1qsKtvRnv5Xi2m66u)" >
</path>
</g>
<path d="M29.3553 67.5338C29.3553 67.0933 29.4983 66.6713 29.7518 66.359C30.0037 66.0477 30.3486 65.8729 30.7067 65.8729L32.3173 65.8729L32.3173 63.12C32.3173 62.5019 32.724 62 33.228 62L40.2189 62C40.4605 62 40.6919 62.118 40.8628 62.3281C41.0338 62.5381 41.1296 62.8235 41.1296 63.12L41.1296 65.8729L42.7402 65.8729C43.0983 65.8729 43.4431 66.0477 43.6951 66.359C43.9486 66.6713 44.0915 67.0933 44.0915 67.5338L44.0915 71.2943L29.3553 71.2943L29.3553 67.5338ZM37.9665 66.8584C37.704 67.5132 37.1317 67.8899 36.5432 67.7948C35.921 67.6942 35.4312 67.0919 35.3495 66.3266C35.2721 65.6028 35.5784 64.8989 36.1109 64.5761C36.6433 64.2536 37.2836 64.3835 37.7032 64.8999C38.1231 65.416 38.2287 66.2035 37.9665 66.8584Z" fill-rule="evenodd"  fill="#77AFF6" >
</path>
<path d="M22.1694 131.496C26.467 136.053 29.271 141.368 29.271 141.368L56.5073 141.368L53.7268 73.6628L19.3538 73.6628L17.5092 125.748C17.5092 125.748 18.6518 127.773 22.1694 131.496Z"   fill="url(#linear_fill_jpeWp4kYl-TkQT2vOjQl2)" >
</path>
<path d="M28.4779 125.662C26.1162 135.865 27.8087 137.719 29.2706 141.368C29.2706 141.368 23.945 135.188 17.5092 125.745C17.5092 125.745 22.1467 127.619 28.4779 125.662Z"   fill="url(#linear_fill_VqsUkpr4c6A5QGPiZL3CT)" >
</path>
<path d="M46.0981 86.7735C46.1507 87.9836 47.0803 88.9749 48.1737 88.9749C49.2675 88.9749 50.0931 87.9836 50.0185 86.7735C49.945 85.5764 49.0169 84.6156 47.9451 84.6156C46.8733 84.6156 46.0462 85.5764 46.0981 86.7735Z"   fill="#FFFFFF" >
</path>
<path d="M23.9992 86.3888L43.7266 86.3888C44.0739 86.3888 44.3438 86.0768 44.3312 85.6933C44.3166 85.311 44.0258 85.0022 43.6806 85.0022L24.0808 85.0022C23.7356 85.0022 23.4365 85.311 23.4135 85.6933C23.3884 86.0768 23.652 86.3888 23.9992 86.3888Z"   fill="#FFFFFF" >
</path>
<path d="M30.1078 88.574L43.7982 88.574C44.1487 88.574 44.4215 88.2557 44.4081 87.8644C44.3932 87.4743 44.0995 87.1593 43.752 87.1593L30.1511 87.1593C29.8021 87.1593 29.5099 87.4743 29.4965 87.8644C29.4845 88.2557 29.7574 88.574 30.1078 88.574Z"   fill="#FFFFFF" >
</path>
<path d="M46.5202 96.4976C46.5776 97.8198 47.5516 98.9026 48.6947 98.9026C49.8382 98.9026 50.6981 97.8198 50.6168 96.4976C50.5364 95.1911 49.5644 94.143 48.4451 94.143C47.3255 94.143 46.4635 95.1911 46.5202 96.4976Z"   fill="#FFFFFF" >
</path>
<path d="M23.43 96.078L44.0408 96.078C44.4036 96.078 44.6877 95.7375 44.6724 95.3188C44.6571 94.9017 44.3533 94.5647 43.9928 94.5647L23.5196 94.5647C23.159 94.5647 22.8465 94.9017 22.8203 95.3188C22.7941 95.7375 23.0673 96.078 23.43 96.078Z"   fill="#FFFFFF" >
</path>
<path d="M29.8107 98.4644L44.1191 98.4644C44.4869 98.4644 44.7705 98.1167 44.7565 97.6891C44.7409 97.2632 44.4339 96.9191 44.0692 96.9191L29.8575 96.9191C29.4928 96.9191 29.1858 97.2632 29.1718 97.6891C29.1577 98.1167 29.4445 98.4644 29.8107 98.4644Z"   fill="#FFFFFF" >
</path>
<path d="M46.9823 107.136C47.0454 108.586 48.0675 109.774 49.265 109.774C50.4629 109.774 51.3604 108.586 51.2714 107.136C51.1833 105.705 50.1629 104.556 48.9912 104.556C47.82 104.556 46.9199 105.705 46.9823 107.136Z"   fill="#FFFFFF" >
</path>
<path d="M22.8074 106.677L44.3868 106.677C44.5652 106.68 44.7368 106.593 44.8626 106.435C44.9862 106.278 45.0525 106.064 45.0456 105.845C45.0228 105.381 44.7116 105.019 44.3319 105.018L22.9058 105.018C22.5238 105.022 22.2081 105.379 22.1715 105.845C22.1555 106.062 22.2172 106.277 22.3385 106.435C22.4597 106.594 22.6313 106.682 22.8074 106.677Z"   fill="#FFFFFF" >
</path>
<path d="M29.4837 109.293L44.4719 109.293C44.6531 109.296 44.8277 109.206 44.9534 109.045C45.0791 108.884 45.146 108.666 45.1362 108.443C45.1166 107.971 44.8 107.601 44.4164 107.598L29.5359 107.598C29.1508 107.601 28.8357 107.971 28.8162 108.443C28.808 108.666 28.8749 108.884 29.0022 109.045C29.1279 109.206 29.3025 109.296 29.4837 109.293Z"   fill="#FFFFFF" >
</path>
<path d="M46.9823 117.519C47.0454 118.968 48.0675 120.156 49.265 120.156C50.4629 120.156 51.3604 118.968 51.2714 117.519C51.1833 116.087 50.1629 114.939 48.9912 114.939C47.82 114.939 46.9199 116.087 46.9823 117.519Z"   fill="#FFFFFF" >
</path>
<path d="M22.8074 117.059L44.3868 117.059C44.5652 117.062 44.7368 116.975 44.8626 116.818C44.9862 116.66 45.0525 116.446 45.0456 116.227C45.0228 115.763 44.7116 115.401 44.3319 115.401L22.9058 115.401C22.5238 115.404 22.2081 115.761 22.1715 116.227C22.1555 116.444 22.2172 116.659 22.3385 116.817C22.4597 116.976 22.6313 117.064 22.8074 117.059Z"   fill="#FFFFFF" >
</path>
<path d="M29.4837 119.676L44.4719 119.676C44.6531 119.678 44.8277 119.588 44.9534 119.427C45.0791 119.266 45.146 119.048 45.1362 118.825C45.1166 118.354 44.8 117.983 44.4164 117.981L29.5359 117.981C29.1508 117.983 28.8357 118.354 28.8162 118.825C28.808 119.048 28.8749 119.266 29.0022 119.427C29.1279 119.588 29.3025 119.678 29.4837 119.676Z"   fill="#FFFFFF" >
</path>
<path d="M109.647 96.8346C109.683 104.715 114.908 111.067 121.314 111.021C122.544 111.012 123.766 110.761 124.932 110.278L132.25 112.999C133.067 113.304 133.79 112.277 133.43 111.327L130.911 104.651C132.19 102.288 132.866 99.5093 132.85 96.6726C132.811 88.7924 127.589 82.4405 121.183 82.4864C114.776 82.5322 109.612 88.9544 109.647 96.8346Z"   fill="url(#linear_fill_hRKjoGyVIGICodb3DO399)" >
</path>
<path d="M102.191 98.3517C102.09 98.7651 102.196 99.2129 102.46 99.4964C102.725 99.78 103.099 99.8435 103.418 99.6634L108.318 96.8652C110.05 98.2855 112.088 99.0354 114.172 99.0168C119.953 98.9744 124.613 93.1793 124.58 86.0672C124.546 78.9577 119.834 73.2262 114.053 73.2659C108.271 73.3056 103.611 79.1034 103.642 86.2129C103.649 87.5802 103.835 88.9343 104.189 90.23L102.191 98.3517Z"   fill="url(#linear_fill_sJX0pT0SiLudZtsVz821B)" >
</path>
<path d="M35.9907 165.499L37.7542 130.459L41.9336 122.13C41.9336 122.13 51.7846 119.302 78.5987 119.267C82.8169 119.267 86.5505 122.6 87.8619 127.522L100.587 175.189L38.1805 176.634L35.9907 165.499Z"   fill="url(#linear_fill_4WOlQgWkQs2XQQt7BnoT1)" >
</path>
<path d="M100.588 175.189L38.1807 176.634L35.9908 165.499L37.7543 130.459L41.9337 122.13C41.9337 122.13 51.7847 119.302 78.5988 119.267C82.817 119.267 86.5507 122.6 87.862 127.522L100.588 175.189Z">
</path>
<g  mask="url(#mask-OkAtFIgcwGq9oJvwV0XsR)">
</g>
<path d="M77.342 131.102L85.7224 123.073L126.207 176.634L107.594 174.186L82.9224 143.865L77.342 131.102Z"   fill="url(#linear_fill_52pzB9dHbIILV55SGIygi)" >
</path>
<g opacity="0.34">
</g>
<path d="M68.0639 160.125C68.4718 163.537 64.0908 176.634 64.0908 176.634L23.6052 176.634C18.4642 176.634 13.9602 172.399 12.6135 166.295C11.4289 160.943 12.9265 155.231 16.4302 151.737C16.4302 151.737 38.341 122.092 41.9341 122.13C45.5272 122.168 47.7066 137.86 47.7066 137.86L38.4304 160.975L68.0639 160.125Z"   fill="url(#linear_fill_9ODHt51s6APB_9ScCT96L)" >
</path>
<path d="M52.9951 172.589L91.6097 172.589L91.6097 176.634L52.8517 176.634L52.8517 172.765C52.8517 172.718 52.8672 172.674 52.8943 172.64C52.9214 172.608 52.9951 172.589 52.9951 172.589Z"   fill="url(#linear_fill_JcDrSrlSEKVaSCeX5Ariw)" >
</path>
<path d="M136.543 176.634L83.3716 176.634L98.462 133.566C98.8099 132.559 99.6149 131.911 100.502 131.911L150.398 131.911C150.801 131.911 151.176 132.157 151.394 132.573C151.619 132.984 151.654 133.503 151.497 133.955L136.543 176.634Z"   fill="url(#linear_fill_b-8KdCwnNzVHBjkq0keXq)" >
</path>
<path d="M137.954 176.634L84.7828 176.634L99.8732 133.566C100.221 132.559 101.026 131.911 101.913 131.911L151.81 131.911C152.212 131.911 152.587 132.157 152.806 132.573C153.031 132.984 153.065 133.503 152.908 133.955L137.954 176.634Z"   fill="url(#linear_fill_QBS-Y0_33yYSS2O6qvAdu)" >
</path>
<ellipse transform="matrix(0.811063289642334, -0.5849612951278687, 0.43039247393608093, 0.9026433825492859, 113.32861328125, 153.90765380859375)" cx="5.229439060001866" cy="3.7931907978729265" rx="5.229439060001866" ry="3.7931907978729265"   fill="url(#linear_fill_dN8UtklDJ5FWwRbwjYgaw)" >
</ellipse>
<path d="M56.1389 121.577L67.4029 87.0189L81.0259 87.0189L82.5246 108.078L72.9017 109.612L71.6853 129.51L56.1389 121.577Z"   fill="url(#linear_fill_5HgM8tBYxeZqBJr63zoWx)" >
</path>
<g opacity="0.34">
</g>
<path d="M72.3607 95.0116C61.8619 123.806 87.0311 116.369 82.0706 101.694C72.1944 105.666 74.6106 95.0116 74.6106 95.0116C74.6106 95.0116 79.1913 92.8594 77.5258 88.5551C77.5258 88.5551 81.0029 86.7138 81.2007 89.4877C85.1903 84.1483 82.192 78.2077 72.7765 81.3847C63.3611 84.5583 60.4459 103.415 60.4459 103.415C60.4459 103.415 65.5279 113.66 72.3607 95.0116Z"   fill="url(#linear_fill_5mmsnFzZF240d-6vAUAjO)" >
</path>
<path d="M68.5878 127.244L74.6159 141.684L74.5216 154.722L71.4742 153.273L67.1527 141.351L66.0483 126.316L68.5878 127.244Z"   fill="url(#linear_fill_j0WZJrVo8INIVANjptm9j)" >
</path>
<path d="M69.9612 124.082L69.2703 127.26C69.1003 128.04 68.5316 128.544 67.7705 128.589L67.1556 128.625C66.4039 128.669 65.5719 128.259 64.9562 127.54L62.7264 124.937L65.7014 124.391L69.9612 124.082Z"   fill="url(#linear_fill_Y8FE1qqEFlM3FoqiKp3Nj)" >
</path>
<path d="M55.7576 121.213C55.7576 121.213 56.8132 117.955 57.4697 117.907C57.4697 117.907 61.4895 122.749 65.8812 124.385L63.0639 129.438C63.0639 129.438 55.4932 124.435 55.7576 121.213Z"   fill="url(#linear_fill_hCyYPWMMQ1HZvc18tv_6E)" >
</path>
<path d="M56.4351 119.289L74.4002 156.606L57.9481 140.246L60.1999 135.425L55.6254 133.328L54.7684 122.76C54.7684 122.76 54.1794 120.39 56.4351 119.289Z"   fill="#FFFFFF" >
</path>
<path d="M73.4844 119.863C73.4844 119.863 73.0599 117.797 72.403 117.758C72.403 117.758 70.7178 122.603 68.1935 124.21L70.2271 128.579C70.2271 128.579 75.3883 123.176 73.4844 119.863Z"   fill="url(#linear_fill__VwqAZWo4bEnb3Ldt8twn)" >
</path>
<rect  transform="matrix(0.9684696793556213, -0.24911123514175415, 0.16764585673809052, 0.9858464002609253, 74.8382568359375, 144.74542236328125)" x="0" y="0" width="8.803413988036102" height="7.366828280658631" rx="0.08888338762214985"    fill="url(#linear_fill_U6mHDotFSHBBwIUszWgc9_0)" >
</rect>
<g opacity="0.46">
<ellipse transform="matrix(0.9684886336326599, -0.2491162270307541, 0.167644202709198, 0.9858368039131165, 76.0716552734375, 146.2486572265625)" cx="1.2652957235522158" cy="1.6498788627044185" rx="1.2652957235522158" ry="1.6498788627044185"   fill="#FFFFFF" >
</ellipse>
<rect transform="matrix(0.9684816598892212, -0.24911443889141083, 0.16764560341835022, 0.9858448505401611, 79.3912353515625, 145.490966796875)" x="0" y="0" width="3.4575150512269786" height="0.40287231706257937"   fill="#FFFFFF" >
</rect>
<rect transform="matrix(0.9684816598892212, -0.24911443889141083, 0.16764560341835022, 0.9858448505401611, 79.621826171875, 146.846435546875)" x="0" y="0" width="3.4575150512269786" height="0.40287231706257937"   fill="#FFFFFF" >
</rect>
<rect transform="matrix(0.9684708118438721, -0.24911166727542877, 0.16765408217906952, 0.9858947992324829, 79.8521728515625, 148.2017822265625)" x="0" y="0" width="2.52629821603569" height="0.4028518440691688"   fill="#FFFFFF" >
</rect>
</g>
<path d="M77.6741 141.305L79.645 140.798C79.6741 140.79 79.7027 140.813 79.7087 140.849L80.1394 143.382L78.063 143.916L77.6323 141.383C77.6263 141.348 77.6448 141.312 77.6741 141.305Z"   fill="url(#linear_fill_ZP47_W3eKgmXlflCLRvE9)" >
</path>
<rect transform="matrix(0.96848464012146, -0.24911528825759888, 0.1676451414823532, 0.9858424067497253, 76.5811767578125, 143.915283203125)" x="0" y="0" width="5.0759119394377805" height="1.4580256875559126"   fill="url(#linear_fill_7C1QTH-H6vwCnLrj-Od1q)" >
</rect>
<path d="M73.1575 118.742C73.1575 118.742 73.5989 149.839 72.6245 153.149L74.4004 156.606L79.3664 137.73L76.5684 134.258L80.4512 132.96L75.1064 120.688C75.1064 120.688 74.9616 118.935 73.1575 118.742Z"   fill="#FFFFFF" >
</path>
<ellipse cx="75.39508056640625" cy="160.66696166992188" rx="1.43402099609375" ry="1.763702392578125"   fill="#FFFFFF" >
</ellipse>
<path d="M14.4696 134.881C14.4696 134.881 13.3851 136.482 13.3851 137.215C13.3851 137.952 13.8708 138.549 14.4696 138.549C15.0685 138.549 15.5541 137.952 15.5541 137.215C15.5541 136.482 14.4696 134.881 14.4696 134.881Z"   fill="url(#linear_fill_mMXxXp742eCX-abMh67cK)" >
</path>
<rect x="7.787109375" y="131.725341796875" width="1.0556640625" height="7.6256103515625"   fill="url(#linear_fill_SAAkhVAHgoS606WW2-9sA)" >
</rect>
<path d="M10.3726 135.911C10.2098 135.709 9.98791 135.597 9.75803 135.597L6.8717 135.597C6.64182 135.597 6.41991 135.709 6.25708 135.911C6.09265 136.113 6.00165 136.385 6.00165 136.666L6.00165 144.677L2.812 144.677C2.15428 144.677 1.52369 144.999 1.05913 145.569C0.594577 146.142 0.332764 146.918 0.332764 147.727L0.332764 173.82C0.332764 174.629 0.594577 175.405 1.05913 175.978C1.52369 176.548 2.15428 176.87 2.812 176.87L13.8177 176.87C14.4754 176.87 15.106 176.548 15.5706 175.978C16.0352 175.405 16.297 174.629 16.297 173.82L16.297 147.727C16.297 146.043 15.1875 144.677 13.8177 144.677L10.6281 144.677L10.6281 136.666C10.6281 136.385 10.5371 136.113 10.3726 135.911Z"   fill="url(#linear_fill__Qvzfzj4wdyeCz1HIiNmD)" >
</path>
<path d="M1.05926 175.978C0.594699 175.405 0.332886 174.629 0.332886 173.82L0.332886 147.727C0.332886 146.918 0.594699 146.142 1.05926 145.569C1.52382 144.999 2.1544 144.677 2.81213 144.677L6.00177 144.677L6.00177 136.666C6.00177 136.385 6.09277 136.113 6.2572 135.911C6.42003 135.709 6.64194 135.597 6.87182 135.597L9.75815 135.597C9.98803 135.597 10.2099 135.709 10.3728 135.911C10.5372 136.113 10.6282 136.385 10.6282 136.666L10.6282 144.677L13.8178 144.677C15.1876 144.677 16.2971 146.043 16.2971 147.727L16.2971 173.82C16.2971 174.629 16.0353 175.405 15.5707 175.978C15.1062 176.548 14.4756 176.87 13.8178 176.87L2.81213 176.87C2.1544 176.87 1.52382 176.548 1.05926 175.978Z">
</path>
<g  mask="url(#mask-OoXoO8T-_fx72mhYKIaJD)">
<g opacity="0.15">
</g>
<g opacity="0.15">
</g>
</g>
<path d="M6.23618 132.855C6.23618 132.855 6.12097 132.769 6.12097 132.662L6.12097 130.392C6.12097 129.777 6.41818 129.278 6.78385 129.278L14.4695 129.278L14.4695 129.303C14.4695 130.277 13.9995 131.067 13.4193 131.067L11.3756 131.067C10.8513 131.067 10.4263 131.781 10.4263 132.662C10.4263 132.769 10.3746 132.855 10.3111 132.855L6.23618 132.855Z"   fill="url(#linear_fill_UM28CfDGiZ1YgUMNeG7ES)" >
</path>
<g opacity="0.39">
<rect x="7.8065185546875" y="139.35101318359375" width="1.0167236328125" height="29.7838134765625"   fill="#FFFFFF" >
</rect>
</g>
<rect  x="5.51220703125" y="136.95330810546875" width="5.6053466796875" height="7.35052490234375" rx="1.099936416938111"    fill="url(#linear_fill_HPEiS3up9rVJ71CBLySKW_0)" >
</rect>
<path d="M10.0176 136.953L6.61214 136.953C6.00466 136.953 5.51221 137.446 5.51221 138.053L5.51221 143.204C5.51221 143.811 6.00466 144.304 6.61214 144.304L10.0176 144.304C10.6251 144.304 11.1175 143.811 11.1175 143.204L11.1175 138.053C11.1175 137.446 10.6251 136.953 10.0176 136.953Z">
</path>
<g  mask="url(#mask-PsqRfHJK7v2bQcqpVRVnQ)">
<g opacity="0.33">
<rect x="6.2535400390625" y="136.2259521484375" width="0.3355712890625" height="8.60833740234375"   fill="url(#linear_fill_EwYwTRbj52qobBNpQcK6n)" >
</rect>
</g>
<g opacity="0.33">
</g>
<g opacity="0.33">
<rect x="7.9793701171875" y="136.2259521484375" width="0.3355712890625" height="8.60833740234375"   fill="url(#linear_fill_Ehw68YlMQQZY5ufy4YgSy)" >
</rect>
</g>
<g opacity="0.33">
<rect x="10.1275634765625" y="136.2259521484375" width="0.3355712890625" height="8.60833740234375"   fill="url(#linear_fill_CbQhB74GRP0r9na4TiKCg)" >
</rect>
</g>
</g>
<g opacity="0.82">
<path d="M1.12585 155.823L15.5037 155.823L15.5037 172.3C15.5037 173.301 15.1802 174.263 14.6037 174.972C14.0271 175.679 13.2464 176.078 12.4312 176.078L4.19841 176.078C2.50182 176.078 1.12585 174.387 1.12585 172.3L1.12585 155.823Z"   fill="url(#linear_fill_lKADxICt03Pw42M03wdQP)" >
</path>
</g>
<rect  x="3.8404541015625" y="158.29705810546875" width="8.9488525390625" height="11.00604248046875" rx="1.602753876221499"    fill="#FFFFFF" >
</rect>
<path d="M7.6654 163.001L5.43848 163.001L5.43848 164.599L7.6654 164.599L7.6654 167.338L8.96439 167.338L8.96439 164.599L11.1913 164.599L11.1913 163.001L8.96439 163.001L8.96439 160.262L7.6654 160.262L7.6654 163.001Z"   fill="url(#linear_fill_KDGKy9mmsA2RB2uXl8r5t)" >
</path>
<defs>
<linearGradient id="linear_fill_Cn-HwNRe0IwC6k0kJcg57" x1="59.0855712890625" y1="-30.165374755859375" x2="88.619140625" y2="284.8843994140625" gradientUnits="userSpaceOnUse">
<stop offset="0" stop-color="#A7F6FF"  />
<stop offset="1" stop-color="#34A595"  />
</linearGradient>
<linearGradient id="linear_fill_X-u3DWbJIcBNTFR3QjnJv" x1="36.7603759765625" y1="143.50811767578125" x2="34.5574951171875" y2="76.07843017578125" gradientUnits="userSpaceOnUse">
<stop offset="0" stop-color="#FFADA9"  />
<stop offset="1" stop-color="#FF6559"  />
</linearGradient>
<mask id="mask-PuzevJwEM0K8EBXXAqIen" style="mask-type:alpha" maskUnits="userSpaceOnUse">
<path fill="white" d="M53.1255 69.1723C54.9419 69.1723 56.4457 70.9292 56.5363 73.1583L59.3674 142.16C59.4127 143.305 59.0775 144.435 58.4297 145.263C57.7865 146.099 56.8942 146.571 55.9565 146.571L17.4902 146.571C16.5526 146.571 15.6602 146.099 15.017 145.263C14.3693 144.435 14.0341 143.305 14.0794 142.16L16.9104 73.1583C17.001 70.9292 18.5049 69.1723 20.3213 69.1723L53.1255 69.1723Z">
</path>
</mask>
<linearGradient id="linear_fill_KioI1qsKtvRnv5Xi2m66u" x1="36.8126220703125" y1="75.2967529296875" x2="36.30615234375" y2="65.01849365234375" gradientUnits="userSpaceOnUse">
<stop offset="0.1011" stop-color="#FF5D37"  />
<stop offset="0.8855" stop-color="#FF9346"  />
</linearGradient>
<linearGradient id="linear_fill_jpeWp4kYl-TkQT2vOjQl2" x1="59.074462890625" y1="157.3995361328125" x2="23.45654296875" y2="69.788330078125" gradientUnits="userSpaceOnUse">
<stop offset="0.1023" stop-color="#DCDFF8"  />
<stop offset="0.8855" stop-color="#F5F7FE"  />
</linearGradient>
<linearGradient id="linear_fill_VqsUkpr4c6A5QGPiZL3CT" x1="162.7857666015625" y1="139.23663330078125" x2="157.2452392578125" y2="129.01531982421875" gradientUnits="userSpaceOnUse">
<stop offset="0.1023" stop-color="#DCDFF8"  />
<stop offset="0.8855" stop-color="#F5F7FE"  />
</linearGradient>
<linearGradient id="linear_fill_hRKjoGyVIGICodb3DO399" x1="144.5010986328125" y1="116.34652709960938" x2="119.5615234375" y2="95.33303833007812" gradientUnits="userSpaceOnUse">
<stop offset="0.4867" stop-color="#77C1BC"  />
<stop offset="1" stop-color="#34A595"  />
</linearGradient>
<linearGradient id="linear_fill_sJX0pT0SiLudZtsVz821B" x1="102.1513671875" y1="86.51638793945312" x2="136.1876220703125" y2="86.51638793945312" gradientUnits="userSpaceOnUse">
<stop offset="0" stop-color="#FFCC92"  />
<stop offset="1" stop-color="#F79748"  />
</linearGradient>
<linearGradient id="linear_fill_4WOlQgWkQs2XQQt7BnoT1" x1="88.033935546875" y1="75.87374877929688" x2="53.9981689453125" y2="214.7086181640625" gradientUnits="userSpaceOnUse">
<stop offset="0.1023" stop-color="#FFFFFF"  />
<stop offset="0.8855" stop-color="#E3EBFD"  />
</linearGradient>
<mask id="mask-OkAtFIgcwGq9oJvwV0XsR" style="mask-type:alpha" maskUnits="userSpaceOnUse">
<path fill="white" d="M100.588 175.189L38.1807 176.634L35.9908 165.499L37.7543 130.459L41.9337 122.13C41.9337 122.13 51.7847 119.302 78.5988 119.267C82.817 119.267 86.5507 122.6 87.862 127.522L100.588 175.189Z">
</path>
</mask>
<linearGradient id="linear_fill_52pzB9dHbIILV55SGIygi" x1="118.1568603515625" y1="87.04367065429688" x2="84.1212158203125" y2="225.87847900390625" gradientUnits="userSpaceOnUse">
<stop offset="0.1023" stop-color="#FFFFFF"  />
<stop offset="0.8855" stop-color="#E3EBFD"  />
</linearGradient>
<linearGradient id="linear_fill_9ODHt51s6APB_9ScCT96L" x1="65.4586181640625" y1="58.222076416015625" x2="28.901611328125" y2="207.34149169921875" gradientUnits="userSpaceOnUse">
<stop offset="0.1023" stop-color="#FFFFFF"  />
<stop offset="0.8855" stop-color="#E3EBFD"  />
</linearGradient>
<linearGradient id="linear_fill_JcDrSrlSEKVaSCeX5Ariw" x1="52.8516845703125" y1="174.6116943359375" x2="91.6097412109375" y2="174.6116943359375" gradientUnits="userSpaceOnUse">
<stop offset="0" stop-color="#98C5FF"  />
<stop offset="1" stop-color="#3580E4"  />
</linearGradient>
<linearGradient id="linear_fill_b-8KdCwnNzVHBjkq0keXq" x1="83.37158203125" y1="154.272705078125" x2="151.5933837890625" y2="154.272705078125" gradientUnits="userSpaceOnUse">
<stop offset="0" stop-color="#98C5FF"  />
<stop offset="1" stop-color="#3580E4"  />
</linearGradient>
<linearGradient id="linear_fill_QBS-Y0_33yYSS2O6qvAdu" x1="84.7828369140625" y1="154.272705078125" x2="153.004638671875" y2="154.272705078125" gradientUnits="userSpaceOnUse">
<stop offset="0" stop-color="#98C5FF"  />
<stop offset="1" stop-color="#3580E4"  />
</linearGradient>
<linearGradient id="linear_fill_dN8UtklDJ5FWwRbwjYgaw" x1="1.0586059857462473" y1="1.0904128149566916" x2="9.400009323249979" y2="6.496088467819192" gradientUnits="userSpaceOnUse">
<stop offset="0" stop-color="#98C5FF"  />
<stop offset="1" stop-color="#3580E4"  />
</linearGradient>
<linearGradient id="linear_fill_5HgM8tBYxeZqBJr63zoWx" x1="56.138916015625" y1="108.26461791992188" x2="82.5245361328125" y2="108.26461791992188" gradientUnits="userSpaceOnUse">
<stop offset="0.1023" stop-color="#FCADBA"  />
<stop offset="0.8855" stop-color="#FBDAD9"  />
</linearGradient>
<linearGradient id="linear_fill_5mmsnFzZF240d-6vAUAjO" x1="60.4459228515625" y1="97.57366943359375" x2="82.9224853515625" y2="97.57366943359375" gradientUnits="userSpaceOnUse">
<stop offset="0.1023" stop-color="#915758"  />
<stop offset="0.8855" stop-color="#2C090B"  />
</linearGradient>
<linearGradient id="linear_fill_j0WZJrVo8INIVANjptm9j" x1="74.1707763671875" y1="139.85748291015625" x2="67.07568359375" y2="141.0433349609375" gradientUnits="userSpaceOnUse">
<stop offset="0" stop-color="#98C5FF"  />
<stop offset="1" stop-color="#3580E4"  />
</linearGradient>
<linearGradient id="linear_fill_Y8FE1qqEFlM3FoqiKp3Nj" x1="70.3798828125" y1="125.47845458984375" x2="63.4227294921875" y2="127.24688720703125" gradientUnits="userSpaceOnUse">
<stop offset="0.0083" stop-color="#009EFE"  />
<stop offset="1" stop-color="#005DFA"  />
</linearGradient>
<linearGradient id="linear_fill_hCyYPWMMQ1HZvc18tv_6E" x1="60.5316162109375" y1="119.99700927734375" x2="61.9107666015625" y2="134.25567626953125" gradientUnits="userSpaceOnUse">
<stop offset="0" stop-color="#FFE5CF"  />
<stop offset="1" stop-color="#FFAE6C"  />
</linearGradient>
<linearGradient id="linear_fill__VwqAZWo4bEnb3Ldt8twn" x1="71.0157470703125" y1="119.2869873046875" x2="71.14208984375" y2="132.5560302734375" gradientUnits="userSpaceOnUse">
<stop offset="0" stop-color="#FFE5CF"  />
<stop offset="1" stop-color="#FFAE6C"  />
</linearGradient>
<radialGradient id="linear_fill_U6mHDotFSHBBwIUszWgc9_0" cx="0" cy="0" r="1" gradientTransform="translate(7.864599802765209 -1.85900147005888) rotate(90) scale(12.256391557233034, 12.256391557233034)" gradientUnits="userSpaceOnUse">
<stop offset="0" stop-color="#00BEDE"  />
<stop offset="0.9965" stop-color="#4A8BFD"  />
</radialGradient>
<linearGradient id="linear_fill_ZP47_W3eKgmXlflCLRvE9" x1="78.3719482421875" y1="140.9049072265625" x2="79.254638671875" y2="143.43499755859375" gradientUnits="userSpaceOnUse">
<stop offset="0.1011" stop-color="#FFE494"  />
<stop offset="1" stop-color="#FFAE00"  />
</linearGradient>
<linearGradient id="linear_fill_7C1QTH-H6vwCnLrj-Od1q" x1="1.88633752828035" y1="-4.169251156173233" x2="2.7007840100214118" y2="1.946072292104338" gradientUnits="userSpaceOnUse">
<stop offset="0.1011" stop-color="#FFE494"  />
<stop offset="1" stop-color="#FFAE00"  />
</linearGradient>
<linearGradient id="linear_fill_mMXxXp742eCX-abMh67cK" x1="14.7861328125" y1="135.89788818359375" x2="14.3372802734375" y2="137.818115234375" gradientUnits="userSpaceOnUse">
<stop offset="0" stop-color="#A7F6FF"  />
<stop offset="1" stop-color="#34A595"  />
</linearGradient>
<linearGradient id="linear_fill_SAAkhVAHgoS606WW2-9sA" x1="5.531886238603105" y1="130.96240142648563" x2="10.08625221166563" y2="138.45044080430486" gradientUnits="userSpaceOnUse">
<stop offset="0.0083" stop-color="#00CAFE"  />
<stop offset="1" stop-color="#0088FA"  />
</linearGradient>
<linearGradient id="linear_fill__Qvzfzj4wdyeCz1HIiNmD" x1="24.8861083984375" y1="120.52175903320312" x2="-5.731201171875" y2="194.8914794921875" gradientUnits="userSpaceOnUse">
<stop offset="0" stop-color="#A7F6FF"  />
<stop offset="1" stop-color="#34A595"  />
</linearGradient>
<mask id="mask-OoXoO8T-_fx72mhYKIaJD" style="mask-type:alpha" maskUnits="userSpaceOnUse">
<path fill="white" d="M1.05926 175.978C0.594699 175.405 0.332886 174.629 0.332886 173.82L0.332886 147.727C0.332886 146.918 0.594699 146.142 1.05926 145.569C1.52382 144.999 2.1544 144.677 2.81213 144.677L6.00177 144.677L6.00177 136.666C6.00177 136.385 6.09277 136.113 6.2572 135.911C6.42003 135.709 6.64194 135.597 6.87182 135.597L9.75815 135.597C9.98803 135.597 10.2099 135.709 10.3728 135.911C10.5372 136.113 10.6282 136.385 10.6282 136.666L10.6282 144.677L13.8178 144.677C15.1876 144.677 16.2971 146.043 16.2971 147.727L16.2971 173.82C16.2971 174.629 16.0353 175.405 15.5707 175.978C15.1062 176.548 14.4756 176.87 13.8178 176.87L2.81213 176.87C2.1544 176.87 1.52382 176.548 1.05926 175.978Z">
</path>
</mask>
<linearGradient id="linear_fill_UM28CfDGiZ1YgUMNeG7ES" x1="11.6976318359375" y1="126.07562255859375" x2="8.10205078125" y2="135.9810791015625" gradientUnits="userSpaceOnUse">
<stop offset="0.1023" stop-color="#915758"  />
<stop offset="0.8855" stop-color="#2C090B"  />
</linearGradient>
<linearGradient id="linear_fill_HPEiS3up9rVJ71CBLySKW_0" x1="5.51220703125" y1="140.62857055664062" x2="11.1175537109375" y2="140.62857055664062" gradientUnits="userSpaceOnUse">
<stop offset="0" stop-color="#98C5FF"  />
<stop offset="1" stop-color="#3580E4"  />
</linearGradient>
<mask id="mask-PsqRfHJK7v2bQcqpVRVnQ" style="mask-type:alpha" maskUnits="userSpaceOnUse">
<path fill="white" d="M10.0176 136.953L6.61214 136.953C6.00466 136.953 5.51221 137.446 5.51221 138.053L5.51221 143.204C5.51221 143.811 6.00466 144.304 6.61214 144.304L10.0176 144.304C10.6251 144.304 11.1175 143.811 11.1175 143.204L11.1175 138.053C11.1175 137.446 10.6251 136.953 10.0176 136.953Z">
</path>
</mask>
<linearGradient id="linear_fill_EwYwTRbj52qobBNpQcK6n" x1="5.153648375407731" y1="149.88500918360108" x2="5.391490435385552" y2="148.12985327813186" gradientUnits="userSpaceOnUse">
<stop offset="0" stop-color="#98C5FF"  />
<stop offset="1" stop-color="#3580E4"  />
</linearGradient>
<linearGradient id="linear_fill_Ehw68YlMQQZY5ufy4YgSy" x1="6.832843059392679" y1="150.22918941982635" x2="7.070679953158676" y2="148.4740335143571" gradientUnits="userSpaceOnUse">
<stop offset="0" stop-color="#98C5FF"  />
<stop offset="1" stop-color="#3580E4"  />
</linearGradient>
<linearGradient id="linear_fill_CbQhB74GRP0r9na4TiKCg" x1="8.922978530283586" y1="150.657630813446" x2="9.160815424049582" y2="148.90247490797674" gradientUnits="userSpaceOnUse">
<stop offset="0" stop-color="#98C5FF"  />
<stop offset="1" stop-color="#3580E4"  />
</linearGradient>
<linearGradient id="linear_fill_lKADxICt03Pw42M03wdQP" x1="1.1258544921875" y1="165.9501953125" x2="15.5037841796875" y2="165.9501953125" gradientUnits="userSpaceOnUse">
<stop offset="0" stop-color="#98C5FF"  />
<stop offset="1" stop-color="#3580E4"  />
</linearGradient>
<linearGradient id="linear_fill_KDGKy9mmsA2RB2uXl8r5t" x1="5.4384765625" y1="163.80010986328125" x2="11.1912841796875" y2="163.80010986328125" gradientUnits="userSpaceOnUse">
<stop offset="0" stop-color="#FFADA9"  />
<stop offset="1" stop-color="#FF6559"  />
</linearGradient>
</defs>
</svg>
