<svg xmlns="http://www.w3.org/2000/svg" xmlns:xlink="http://www.w3.org/1999/xlink" width="32" height="32" viewBox="0 0 32 32" fill="none">
<path d="M15.2223 11.8821C14.6667 12.4377 9.33337 17.8814 9.33337 21.5476C9.33337 25.6582 12.7778 28.2134 16 28.2134C19.2223 28.2134 22.6667 25.7693 22.6667 21.5476C22.6667 17.7703 17.3334 12.4377 16.7778 11.771C16.3334 11.4377 15.6667 11.4377 15.2223 11.8821Z"   fill="#655EB0" >
</path>
<path d="M20.4399 10.4374C20.4399 7.99397 23.4414 4.77304 24.1084 4.10664C24.4419 3.66237 25.2201 3.66237 25.6648 4.10664C26.3318 4.77304 29.3333 7.99397 29.3333 10.4374C29.3333 13.2141 27.1099 14.8801 24.8866 14.8801C22.6633 14.8801 20.4399 13.2141 20.4399 10.4374ZM6.33513 4.21344C6.66863 3.76904 7.44679 3.76904 7.89146 4.21344C8.55846 4.76905 11.56 7.99128 11.56 10.4357C11.56 13.2134 9.33663 14.8801 7.11329 14.8801C4.88996 14.8801 2.66663 13.2134 2.66663 10.4357C2.66663 7.99128 5.66813 4.76905 6.33513 4.21344Z" fill-rule="evenodd"  fill="#D2D0E8" >
</path>
</svg>
