<svg xmlns="http://www.w3.org/2000/svg" xmlns:xlink="http://www.w3.org/1999/xlink" width="32" height="32" viewBox="0 0 32 32" fill="none">
<path d="M21.0023 2.66675C19.5083 2.73612 18.1027 3.395 17.0934 4.49894C21.2812 7.74904 23.7794 14.6866 23.7794 19.889C23.7762 21.2511 23.5332 22.6022 23.0617 23.8801C26.7466 22.9369 29.3264 19.6192 29.3334 15.8146C29.3334 10.5201 25.8354 2.66675 21.0023 2.66675Z"   fill="#FFE2D3" >
</path>
<path d="M12.1133 29.3333C6.89609 29.3333 2.66663 25.1057 2.66663 19.8907C2.66663 13.8506 6.63309 4.89331 12.1133 4.89331C17.5935 4.89331 21.56 13.8506 21.56 19.8907C21.56 25.1057 17.3305 29.3333 12.1133 29.3333Z" fill-rule="evenodd"  fill="#EC744A" >
</path>
</svg>
