<svg xmlns="http://www.w3.org/2000/svg" xmlns:xlink="http://www.w3.org/1999/xlink" width="151" height="177" viewBox="0 0 151 177" fill="none">
<rect  x="0" y="57" width="151" height="120" rx="10"    fill="#BACAC2" >
</rect>
<path d="M116.95 33.02C116.95 33.02 132.065 40.3954 129.264 52.6308L119.266 55.42L116.95 33.02Z"   fill="#102048" >
</path>
<path d="M130.734 12.0343C130.734 12.0343 132.858 -0.221502 138.712 1.02031L136.991 3.36911C136.991 3.36911 139.21 -0.782 141.002 0.328627C142.793 1.43925 141.171 4.98994 141.171 4.98994C141.171 4.98994 142.007 1.91057 143.543 1.67569C145.079 1.44081 146.488 6.26545 143.053 18.8536C143.053 18.8536 146.775 15.1733 148.244 14.5516C149.715 13.9299 149.616 23.5616 139.184 33.8118C128.754 44.0615 121.374 51.9899 121.374 51.9899L116.95 33.0118C118.572 31.4189 126.887 22.2565 126.596 10.8039C126.375 2.11953 130.238 6.04198 130.734 12.0343Z" fill-rule="evenodd"  fill="#F9B384" >
</path>
<path d="M56.06 83.2343C56.4267 83.7993 116.95 33.02 116.95 33.02L129.26 52.6344L67.4836 125.18L56.06 83.2343Z"   fill="#2A6049" >
</path>
<path d="M133.911 11.8919L133.663 12.8505L133.471 13.8205C133.307 14.465 133.273 15.1256 133.15 15.7799L132.88 15.7654C132.896 14.4213 133.021 13.0675 133.323 11.7509C133.622 10.4344 134.015 9.13563 134.527 7.88714C135.048 6.6434 135.619 5.4191 136.306 4.25802C136.988 3.0953 137.734 1.97473 138.607 0.939941L138.82 1.10674C138.099 2.21603 137.432 3.36895 136.818 4.53983C136.214 5.71709 135.641 6.91067 135.163 8.14135C134.656 9.36075 134.251 10.6174 133.911 11.8919Z"   fill="#E28B6D" >
</path>
<path d="M138.134 17.97L137.87 17.9132C138.014 16.806 138.225 15.7131 138.446 14.622C138.676 13.5339 138.929 12.4509 139.192 11.371C139.476 10.296 139.74 9.21618 140.053 8.14936C140.359 7.08085 140.676 6.0139 141.037 4.95996L141.3 5.028C141.099 6.1224 140.862 7.20874 140.62 8.29182C140.385 9.37816 140.106 10.4515 139.858 11.5346L139.034 14.7612C138.744 15.8329 138.457 16.9047 138.134 17.97Z"   fill="#E28B6D" >
</path>
<path d="M146.256 16.5407C145.532 17.1414 144.816 17.755 144.104 18.3734L143.812 18.6244C143.577 18.8138 143.179 18.728 143.037 18.4706C142.958 18.3459 142.94 18.1791 142.976 18.0512L143.026 17.8699L143.122 17.5332C143.255 17.0863 143.372 16.633 143.481 16.1781C143.705 15.2698 143.888 14.3518 144.057 13.4306C144.376 11.5833 144.58 9.715 144.694 7.84182C144.808 5.96864 144.85 4.0825 144.707 2.21256L144.975 2.18018C145.369 5.95568 145.197 9.76519 144.639 13.5213C144.484 14.4587 144.322 15.3961 144.096 16.3205C143.989 16.7836 143.874 17.245 143.741 17.7031L143.645 18.048L143.601 18.2083C143.607 18.1937 143.604 18.1532 143.588 18.1289C143.567 18.0788 143.476 18.0642 143.43 18.0982L143.674 17.8845C144.384 17.2579 145.1 16.6378 145.826 16.0275L146.928 15.1225C147.123 14.9687 147.284 14.8375 147.515 14.6708C147.839 14.449 148.309 14.4878 148.595 14.763C148.741 14.8828 148.835 15.1208 148.853 15.2487L148.923 15.6163C148.949 15.8623 148.991 16.1084 148.994 16.3529C149.009 16.599 149.017 16.8435 149.002 17.0879C148.997 17.3324 148.988 17.5769 148.955 17.8165C148.869 18.7863 148.639 19.7301 148.348 20.6449C147.752 22.4743 146.89 24.1937 145.884 25.8111C144.873 27.4269 143.72 28.9406 142.511 30.4042C141.901 31.1295 141.248 31.8192 140.619 32.5283L138.633 34.5602L138.44 34.3708L140.34 32.2774C140.939 31.5505 141.561 30.843 142.138 30.1014C143.304 28.6282 144.411 27.1079 145.371 25.5019C146.315 23.8893 147.166 22.2185 147.719 20.4506C147.994 19.5682 148.207 18.6665 148.28 17.755C148.309 17.5283 148.315 17.3 148.319 17.0734C148.332 16.8451 148.322 16.62 148.307 16.395C148.304 16.1683 148.262 15.9482 148.239 15.7247L148.176 15.3977C148.155 15.2925 148.151 15.3038 148.119 15.2633C148.064 15.2083 147.958 15.1937 147.888 15.2423L147.351 15.6535L146.256 16.5407Z" fill-rule="evenodd"  fill="#E28B6D" >
</path>
<path d="M85.5538 58.3124C92.4105 62.4847 97.152 60.0047 98.5365 55.5004C99.9218 50.9953 104.985 34.0284 83.8226 36.7631C83.8226 36.7631 57.8905 26.3363 46.9161 41.7197C37.2354 55.2896 46.1173 64.6706 31.3257 75.9238C21.0115 83.7706 9.31773 97.5557 32.5125 121.13L57.6702 114.22L85.5538 58.3124Z"   fill="#EC744A" >
</path>
<path d="M77.7395 77.98C78.2525 80.3682 83.8 86.55 86.0208 88.8685C92.7326 95.8794 94.2147 109.03 75.077 113.05L64.31 88.0381L77.7395 77.98Z"   fill="#A14E31" >
</path>
<path d="M78.7 81.1179L76.4367 91.5086L72.9197 107.68L53.29 103.544L57.9093 71.8298L77.9255 80.7712L78.7 81.1179Z"   fill="#F9B384" >
</path>
<path d="M90.77 60.5698C90.77 60.5698 96.4345 66.9058 96.2348 68.5173C96.0351 70.1304 90.77 73.0198 90.77 73.0198L90.77 60.5698Z"   fill="#E28B6D" >
</path>
<path d="M78.69 81.1082L76.4275 91.4999C70.3932 88.2955 65.99 80.3699 65.99 80.3699L77.9142 80.7633L78.69 81.1082Z"   fill="#E28B6D" >
</path>
<path d="M92.103 74.9789C91.3073 81.0009 89.2991 85.6269 85.0065 86.0398C73.1399 87.1862 56.06 73.9279 56.06 73.9279L56.9804 49.6505L69.8863 41.71L90.7747 45.5768C91.025 48.318 92.3043 56.7007 92.5119 65.1323C92.5947 68.5293 92.5039 71.933 92.103 74.9789Z"   fill="#F9B384" >
</path>
<path d="M67.0132 61.494L66.1267 68.2403L51.2055 68.71L50.34 49.851L65.2189 38.25L92.7623 43.6085L94.05 49.6582L91.475 51.6356C78.0491 41.1876 80.8321 56.2394 79.5868 61.0584C78.3398 65.8778 71.9782 64.6083 67.0132 61.494Z"   fill="#EC744A" >
</path>
<path d="M74.772 119.68C82.1008 115.758 80.0225 105.524 77.1703 102.022C74.3177 98.5192 62.1947 92.6432 60.7251 81.6144C59.907 75.4806 66.1253 68.2389 66.1253 68.2389L53.5135 61.49L40.59 81.7552L50.341 116.558L74.772 119.68Z"   fill="#EC744A" >
</path>
<path d="M83.91 175.838L22.3918 175.88C19.7047 136.599 29.5233 116.515 38.0113 106.649C43.3562 100.441 51.429 97.3695 59.5719 98.3641C66.6538 99.2335 72.9915 103.383 79.2232 118.007L50.4276 131.337L68.6071 163.544C70.4842 166.843 73.2053 169.593 76.4866 171.512L83.91 175.838Z"   fill="#2A6049" >
</path>
<path d="M49.92 130.72C49.92 130.72 63.5881 167.254 68.6525 172.063C73.9251 177.068 85.2465 175.811 104.98 175.84L80.051 138.751L49.92 130.72Z"   fill="#275441" >
</path>
<path d="M118.115 164.07L130.965 168.994C130.965 168.994 140.989 168.594 144.041 169.972C145.719 170.774 154.477 176 149.369 176C148.617 176 148.617 176 146.811 176C146.045 176 144.174 176 144.174 176L112.07 175.676L114.705 168.351L118.115 164.07Z"   fill="#F9B384" >
</path>
<path d="M121.945 175.937L86.7847 176.16L83.9043 176.16L76.4834 171.83C73.202 169.911 70.4806 167.162 68.6039 163.862L49.91 131.036L79.0307 117.53C82.1591 124.855 85.3024 135.021 88.592 149.106C89.0349 151.005 90.3567 152.593 92.1505 153.373L124.59 166.228L121.945 175.937Z"   fill="#2A6049" >
</path>
<path d="M70.1 64.1545C69.0426 58.3056 62.0795 57.5318 60.8678 61.4834C59.6561 65.435 59.9517 72.2245 68.6967 71.823L70.1 64.1545Z"   fill="#F9B384" >
</path>
<path d="M66.9161 62.8394C67.2393 63.3379 67.4911 63.8673 67.66 64.4241L67.3059 64.6199L66.216 63.38C65.8537 62.9932 65.4785 62.6225 65.0886 62.4007C64.6907 62.1789 64.3755 62.1158 64.0101 62.3101C63.6348 62.4994 63.2758 62.9041 62.9039 63.3185L62.54 63.1372C62.6943 62.5691 62.9477 61.9831 63.5162 61.5444C63.7891 61.3162 64.192 61.1948 64.5786 61.1899C64.9684 61.2094 65.3274 61.3324 65.6117 61.5121C66.1916 61.8682 66.5911 62.3441 66.9161 62.8394Z"   fill="#E28B6D" >
</path>
<g opacity="0.2">
<path d="M91.7871 76.9083C91.4901 76.9697 85.91 75.3735 85.91 70.1309C85.91 67.3348 88.364 64.95 91.1671 64.95C91.6313 64.95 92.0808 65.0114 92.5029 65.1362C92.5856 68.5329 92.5142 73.6216 91.7871 76.9083Z"   fill="#EE6F57" >
</path>
</g>
</svg>
