<?xml version="1.0" standalone="no"?><!DOCTYPE svg PUBLIC "-//W3C//DTD SVG 1.1//EN" "http://www.w3.org/Graphics/SVG/1.1/DTD/svg11.dtd"><svg t="1725873608675" class="icon" viewBox="0 0 1024 1024" version="1.1" xmlns="http://www.w3.org/2000/svg" p-id="31443" xmlns:xlink="http://www.w3.org/1999/xlink" width="64" height="64"><path d="M175.04 856l134.976-44.992 24 11.008a384.704 384.704 0 0 0 178.048 42.048c108.672-3.392 199.168-38.848 271.488-106.56 72.32-67.648 109.824-149.44 112.512-245.44-2.688-96-40.192-177.92-112.512-245.504C711.232 198.848 620.608 163.392 512 160c-108.672 3.328-199.168 38.784-271.488 106.496C168.256 334.208 130.752 416 128 512c0 34.624 5.952 68.992 17.984 102.976 12.032 33.984 29.696 65.984 52.992 96l22.016 28.992-46.08 115.968z m-46.08 81.984a29.184 29.184 0 0 1-32.448-8.512 30.4 30.4 0 0 1-6.528-33.472l58.048-145.984a433.92 433.92 0 0 1-62.08-113.536A361.472 361.472 0 0 1 64 512c2.624-110.08 45.312-205.824 128-287.488C274.56 142.848 381.312 99.968 512 96c130.624 3.968 237.312 46.848 320 128.512C914.56 306.176 957.248 401.92 960 512c-2.688 109.952-45.376 205.824-128 287.488-82.688 81.6-189.376 124.48-320 128.448a464.64 464.64 0 0 1-207.04-48l-176 58.048zM512 563.008a48.384 48.384 0 0 1-44.032-25.536A51.648 51.648 0 0 1 461.056 512c0-8.64 2.368-17.152 7.04-25.472A48.384 48.384 0 0 1 512 460.992 49.472 49.472 0 0 1 563.008 512 49.472 49.472 0 0 1 512 563.008z m192 0a48.384 48.384 0 0 1-44.032-25.536 51.648 51.648 0 0 1-6.976-25.472c0-8.64 2.368-17.152 7.04-25.472A48.384 48.384 0 0 1 704 460.992a49.536 49.536 0 0 1 51.008 51.008 49.472 49.472 0 0 1-51.008 51.008z m-384 0a48.384 48.384 0 0 1-44.032-25.536A51.648 51.648 0 0 1 269.056 512c0-8.64 2.368-17.152 7.04-25.472A48.384 48.384 0 0 1 320 460.992 49.472 49.472 0 0 1 371.008 512 49.472 49.472 0 0 1 320 563.008z" fill="#2a6049" p-id="31444"></path></svg>