<?xml version="1.0" standalone="no"?><!DOCTYPE svg PUBLIC "-//W3C//DTD SVG 1.1//EN" "http://www.w3.org/Graphics/SVG/1.1/DTD/svg11.dtd"><svg t="1725874390453" class="icon" viewBox="0 0 1024 1024" version="1.1" xmlns="http://www.w3.org/2000/svg" p-id="43469" xmlns:xlink="http://www.w3.org/1999/xlink" width="64" height="64"><path d="M398.757647 163.237647c-32.045176 6.505412-62.403765 26.864941-72.764235 48.670118-3.614118 7.830588-3.734588 8.312471-4.096 28.672l-0.361412 20.841411h-53.007059c-59.271529 0-64.813176 0.602353-80.112941 7.830589-24.696471 11.806118-45.778824 37.948235-54.934588 68.065882l-2.770824 9.035294-0.361412 209.016471c-0.240941 178.537412 0 210.221176 1.445648 217.449412 7.107765 34.454588 30.599529 67.945412 57.223529 81.799529 4.336941 2.168471 10.962824 5.059765 14.576941 6.264471 6.384941 2.168471 16.384 2.288941 299.971765 2.288941 330.932706 0 297.923765 0.963765 319.969882-9.637647 32.768-15.781647 61.078588-50.115765 69.150118-83.968 2.288941-9.758118 2.409412-14.336 2.409412-211.787294 0-225.882353 0.602353-208.534588-9.035295-228.291765-15.661176-32.165647-50.236235-58.910118-85.172705-66.138353-7.830588-1.686588-19.877647-1.927529-76.619295-1.92753h-67.463529l-0.481882-21.443764c-0.722824-23.371294-2.409412-31.201882-9.276236-43.008-8.071529-13.974588-22.407529-25.780706-38.671058-31.683765l-9.035295-3.252706-96.37647-0.240941c-75.776-0.120471-98.063059 0.120471-104.207059 1.445647z m195.162353 50.477177c5.421176 2.770824 10.601412 7.710118 12.769882 11.806117 1.204706 2.288941 1.686588 7.830588 1.686589 19.636706V261.421176H368.64v-15.540705c0-13.854118 0.240941-15.781647 2.529882-18.672942 4.336941-5.541647 21.323294-12.528941 36.864-15.179294 3.132235-0.481882 45.417412-0.843294 93.726118-0.722823 83.365647 0.120471 88.184471 0.240941 92.16 2.409412z m213.232941 103.966117c11.565176 5.903059 22.046118 14.336 30.238118 24.45553 9.517176 11.926588 9.999059 13.854118 10.480941 43.610353l0.361412 26.262588H177.091765v-24.45553c0-27.949176 1.325176-36.141176 7.589647-48.549647 5.782588-11.444706 12.649412-18.793412 21.564235-23.250823l7.469177-3.734588 291.538823 0.240941 291.659294 0.361411 10.24 5.059765z m40.719059 291.659294l-0.361412 146.853647-5.059764 10.11953c-8.553412 17.227294-24.937412 34.093176-41.923765 43.12847l-6.02353 3.132236-289.490823 0.361411-289.490824 0.240942-6.023529-2.529883c-11.444706-4.939294-22.889412-20.720941-29.033412-40.237176l-2.770823-8.432941-0.361412-149.744942-0.361412-149.62447H848.112941l-0.240941 146.733176z" p-id="43470" fill="#2a6049"></path><path d="M488.869647 574.885647l-0.361412 37.707294-35.779764 0.361412-35.900236 0.240941v49.392941h72.282353v75.896471h46.98353v-75.896471h72.282353v-49.392941l-35.779765-0.240941-35.900235-0.361412-0.361412-37.707294-0.240941-37.586823h-46.98353l-0.240941 37.586823z" p-id="43471" fill="#2a6049"></path></svg>