<?xml version="1.0" standalone="no"?><!DOCTYPE svg PUBLIC "-//W3C//DTD SVG 1.1//EN" "http://www.w3.org/Graphics/SVG/1.1/DTD/svg11.dtd"><svg t="1727162289102" class="icon" viewBox="0 0 1024 1024" version="1.1" xmlns="http://www.w3.org/2000/svg" p-id="13123" xmlns:xlink="http://www.w3.org/1999/xlink" width="200" height="200"><path d="M940.8 87.2c-4.8-4-9.6-7.2-14.4-10.4l-7.2-4.8c-4.8-3.2-10.4-5.6-16-8.8-5.6-2.4-10.4-4.8-16-7.2-20-7.2-41.6-11.2-63.2-11.2-36.8 0-72.8 11.2-103.2 31.2-7.2 4.8-14.4 10.4-20.8 16.8-2.4 1.6-4 4-6.4 6.4-4 4-8 8.8-12 12.8-64 79.2-52 195.2 27.2 258.4 75.2 60.8 184.8 52.8 250.4-17.6 2.4-2.4 4-4.8 6.4-7.2 64.8-78.4 53.6-194.4-24.8-258.4z m12 182.4h-129.6c-2.4 0-5.6-0.8-8-1.6-7.2-3.2-12-10.4-12-18.4V120.8c0-10.4 7.2-18.4 16.8-20.8h5.6l2.4 0.8 1.6 0.8c0.8 0 1.6 0.8 2.4 0.8l1.6 0.8 1.6 1.6 1.6 0.8 1.6 1.6 0.8 1.6c0.8 0.8 0.8 1.6 1.6 2.4 0 0.8 0.8 0.8 0.8 1.6s0.8 1.6 0.8 2.4l0.8 1.6v89.6c0 4.8 1.6 9.6 4 13.6 1.6 2.4 4 4.8 6.4 6.4 4 2.4 8.8 4 13.6 4H952c2.4 0 4.8 0 7.2 0.8 10.4 3.2 16 14.4 12.8 24.8-2.4 8-10.4 13.6-19.2 13.6zM551.2 1004.8c-2.4 0-24-0.8-24-27.2v-4l1.6-4c28-71.2 104.8-109.6 138.4-124H600c-15.2 0-28.8-8-36-20.8-6.4-11.2-5.6-24.8 1.6-35.2l16.8-26.4c14.4-26.4 21.6-56 20.8-85.6 0-33.6 5.6-80.8 34.4-121.6 32.8-48 86.4-72 157.6-72 1.6 0 164.8 2.4 164.8 214.4v3.2c-4 24-2.4 52 3.2 56.8l2.4 1.6 1.6 2.4c0.8 1.6 2.4 3.2 3.2 4.8 6.4 8.8 13.6 20 13.6 37.6v3.2c0 10.4-4.8 20.8-12.8 28-8 7.2-18.4 11.2-28.8 10.4h-64.8v0.8c48 22.4 84.8 49.6 109.6 80 6.4 8 10.4 17.6 10.4 28 0 12-4 24-12.8 32.8-8.8 8.8-20 14.4-32 14.4-110.4 2.4-398.4 2.4-401.6 2.4zM692.8 880c-32 11.2-86.4 40-114.4 83.2 74.4 0 283.2 0 373.6-2.4 1.6 0 2.4-0.8 3.2-1.6 0.8-0.8 1.6-1.6 1.6-3.2 0-0.8-0.8-2.4-0.8-3.2-23.2-28.8-59.2-53.6-107.2-74.4l-12.8-5.6v-2.4c-7.2-6.4-12-15.2-13.6-24.8v-15.2c-0.8 0.8-1.6 1.6-3.2 1.6-30.4 18.4-66.4 19.2-96 4.8v4.8c0 16.8-12.8 35.2-30.4 38.4zM600 812z m80.8-96l4 2.4 2.4 5.6c8 20.8 19.2 40 32 58.4 18.4 24 52 31.2 78.4 15.2 22.4-13.6 38.4-35.2 45.6-60.8 0.8-4.8 2.4-9.6 3.2-14.4 0-1.6 0.8-3.2 0.8-4-8-3.2-14.4-8-20-14.4-19.2-24-48-37.6-78.4-37.6h-13.6c-22.4 31.2-40.8 44.8-54.4 49.6z m172 88.8h89.6c0-4.8-1.6-7.2-6.4-14.4-0.8-0.8-1.6-2.4-2.4-3.2-24-23.2-18.4-73.6-15.2-91.2 0-71.2-20.8-121.6-61.6-149.6-30.4-20.8-61.6-21.6-62.4-21.6-131.2 0-150.4 95.2-150.4 152v15.2c4-6.4 8.8-12 16-13.6 3.2-0.8 6.4-1.6 9.6-0.8 10.4-5.6 35.2-35.2 52.8-65.6l24.8-40.8 16 55.2c37.6 3.2 72 21.6 96 52 0.8 1.6 3.2 2.4 5.6 2.4h40v70.4l-20.8-4v1.6c-6.4 20-16.8 39.2-31.2 56z m-248-0.8h79.2c-12.8-19.2-24-38.4-32.8-59.2-5.6-5.6-9.6-11.2-12-18.4-4.8 20-12 39.2-21.6 56.8l-0.8 0.8-12 20z m282.4-76.8s0 0.8 0 0z" fill="#2a6049" p-id="13124"></path><path d="M289.6 344c43.2 0 85.6 9.6 108 25.6 16.8 16 25.6 33.6 24 68.8l-4-8-36 7.2c-16.8 3.2-32.8 5.6-49.6 5.6-17.6 0.8-35.2-3.2-51.2-11.2-10.4-5.6-22.4-8.8-34.4-8-12.8 0.8-25.6 3.2-37.6 7.2-3.2 0.8-7.2 2.4-9.6 3.2l-30.4-3.2-3.2 5.6c-0.8-39.2 4.8-52 17.6-66.4 22.4-16 62.4-26.4 106.4-26.4M472 781.6h1.6c31.2 43.2 58.4 118.4 65.6 176H361.6l14.4-32 50.4-108 13.6-28-6.4-8H472m-321.6 0L144 792l15.2 24.8 68.8 112.8 16.8 28h-192c9.6-60 32.8-133.6 66.4-176h31.2M289.6 296c-53.6 0-107.2 12.8-140 39.2-32.8 37.6-36 71.2-28.8 160.8l-4.8 3.2-6.4 4v8c-0.8 19.2 1.6 38.4 8.8 56.8 4.8 12 13.6 22.4 24.8 28.8 5.6 23.2 14.4 44.8 24.8 66.4 9.6 18.4 24 34.4 41.6 45.6 0 0 15.2 10.4 14.4 24.8H110.4c-8 0-16 3.2-21.6 9.6C37.6 800 9.6 904.8 1.6 974.4c-1.6 15.2 9.6 29.6 24.8 31.2h561.6c8-72.8-35.2-202.4-84-263.2-4.8-6.4-12.8-10.4-20.8-10.4-2.4 0-5.6 0.8-8 1.6H369.6c-0.8-9.6 1.6-19.2 8-26.4 16-10.4 28.8-24 38.4-40.8 12-22.4 21.6-45.6 28-70.4 11.2-6.4 19.2-16.8 24-29.6 6.4-17.6 8.8-36.8 8-56v-8l-6.4-4c-2.4-1.6-4-3.2-6.4-4 13.6-72.8 10.4-120.8-34.4-162.4-32.8-23.2-85.6-36-139.2-36zM200 482.4c15.2 0 32.8-10.4 47.2-10.4 4 0 7.2 0.8 10.4 2.4 23.2 12 48.8 17.6 74.4 17.6 20 0 40-2.4 59.2-6.4 5.6 12 9.6 24 12 36.8l2.4 11.2 11.2-0.8h0.8c1.6 0 4 0.8 5.6 0.8 0.8 0 1.6 0.8 3.2 0.8 0 10.4-1.6 21.6-5.6 31.2-1.6 6.4-6.4 11.2-12 13.6l-6.4 2.4-1.6 6.4c-4.8 20.8-12.8 41.6-23.2 60.8-8 15.2-21.6 26.4-37.6 32.8-14.4 3.2-29.6 4-44 3.2h-7.2c-16 0.8-32-0.8-47.2-4.8-15.2-7.2-26.4-19.2-34.4-34.4-9.6-18.4-16.8-37.6-21.6-57.6l-1.6-6.4-7.2-2.4c-5.6-2.4-10.4-7.2-12-13.6-4-10.4-5.6-20.8-5.6-32 0.8-0.8 2.4-0.8 3.2-1.6 1.6-0.8 3.2-0.8 5.6-0.8h1.6l12 1.6 2.4-12c2.4-13.6 7.2-27.2 13.6-40l2.4 1.6z m132.8 423.2l-16.8-111.2 12-20v-8h28.8l26.4 30.4-50.4 108.8z m-64-0.8L200 792l15.2-25.6h58.4v8l12 20-16.8 110.4z" fill="#2a6049" p-id="13125"></path></svg>