<?xml version="1.0" standalone="no"?><!DOCTYPE svg PUBLIC "-//W3C//DTD SVG 1.1//EN" "http://www.w3.org/Graphics/SVG/1.1/DTD/svg11.dtd"><svg t="1725032661031" class="icon" viewBox="0 0 1024 1024" version="1.1" xmlns="http://www.w3.org/2000/svg" p-id="15262" xmlns:xlink="http://www.w3.org/1999/xlink" width="200" height="200"><path d="M439.53174755 948.90666667a35.18555022 35.18555022 0 0 1-32.15633066-21.20453689 835.83158045 835.83158045 0 0 0-116.50844444-192.47195023c-35.88460089-48.00147911-109.75095467-181.05412267-17.0102329-381.681664C348.88817778 191.36876089 348.88817778 111.91000178 348.88817778 111.21095111a34.95253333 34.95253333 0 1 1 69.90506667-2.33016889c0 3.72827022 2.097152 94.37184-80.85686045 274.02786133-76.66255645 166.37405867-18.874368 272.39674311 9.55369245 310.378496a908.76586667 908.76586667 0 0 1 123.96498488 206.91899734 34.95253333 34.95253333 0 0 1-18.40833422 46.60337778 35.41856711 35.41856711 0 0 1-13.51497956 2.097152zM745.01688889 882.26383645a34.95253333 34.95253333 0 0 1-34.95253334-33.08839823c-8.85464178-178.02490311-54.75896889-245.13376711-74.09937066-265.63925333a69.90506667 69.90506667 0 0 1-6.05843911-88.54641778 498.88915911 498.88915911 0 0 0 93.20675555-259.81383111 34.95253333 34.95253333 0 0 1 34.95253334-34.95253333 34.95253333 34.95253333 0 0 1 34.95253333 34.95253333A559.24053333 559.24053333 0 0 1 687.46171733 535.30168889c37.51571911 39.61287111 83.88608 125.59610311 93.20675556 309.91246222a34.95253333 34.95253333 0 0 1-33.32141511 36.58365156z" fill="#f4ea2a" p-id="15263" data-spm-anchor-id="a313x.search_index.0.i13.17443a81hNrNdB" class="selected"></path><path d="M466.79472355 742.22068622a276.35803022 276.35803022 0 0 1-46.60337777-3.72827022 34.95253333 34.95253333 0 0 1 13.74799644-68.73998222c1.63111822 0 83.42004622 15.14609778 129.09135645-30.52521245a34.95253333 34.95253333 0 1 1 49.39958044 49.39958045 204.82184533 204.82184533 0 0 1-145.63555556 53.59388444z" fill="#f4ea2a" p-id="15264" data-spm-anchor-id="a313x.search_index.0.i14.17443a81hNrNdB" class="selected"></path></svg>