<?xml version="1.0" standalone="no"?><!DOCTYPE svg PUBLIC "-//W3C//DTD SVG 1.1//EN" "http://www.w3.org/Graphics/SVG/1.1/DTD/svg11.dtd"><svg t="1725032597800" class="icon" viewBox="0 0 1024 1024" version="1.1" xmlns="http://www.w3.org/2000/svg" p-id="14038" xmlns:xlink="http://www.w3.org/1999/xlink" width="200" height="200"><path d="M573.917867 140.663467s-224.631467 172.373333-254.737067 225.28c-30.1056 52.906667-20.8896 98.986667-10.1376 223.573333s23.176533 208.213333 10.1376 269.653333c0 0 148.855467 51.2 283.818667 6.826667 0 0-6.690133-184.32-23.7568-267.946667s169.540267-119.466667 283.579733-153.6c0 0-38.229333-240.64-288.904533-303.786666z" fill="#FAC5A3" p-id="14039"></path><path d="M411.9552 339.421867s26.146133 73.386667 9.659733 92.16-72.021333 100.113067-72.021333 100.113066 82.363733-74.513067 91.989333-103.5264c9.6256-29.013333-29.627733-88.746667-29.627733-88.746666z" fill="#EFA67D" p-id="14040"></path><path d="M532.343467 527.1552c13.448533-70.5536 302.830933-167.389867 302.830933-167.389867 21.845333 48.2304 27.613867 84.650667 27.613867 84.650667-114.0736 34.133333-300.6464 69.973333-283.579734 153.6s23.7568 267.946667 23.7568 267.946667c-18.875733 6.212267-38.024533 10.5472-57.002666 13.4144 13.5168-114.0736-26.897067-282.624-13.6192-352.221867z" fill="#020202" opacity=".05" p-id="14041"></path></svg>