<svg xmlns="http://www.w3.org/2000/svg" xmlns:xlink="http://www.w3.org/1999/xlink" width="140.00018310546875" height="160" viewBox="0 0 140.00018310546875 160" fill="none">
<path d="M8.45063 102.967C8.45063 102.967 -8.48019 79.7933 5.58757 54.7034C18.0694 32.4431 32.6228 33.9643 43.3011 42.9984C47.848 46.8453 60.9596 43.4721 72.118 20.8207C87.3365 -10.0691 140.089 8.66633 130.47 56.1916C125.816 79.1902 142.587 79.3682 132.997 102.358L8.45063 102.967Z"   fill="#BACAC2" >
</path>
<path d="M131.225 52.2148C131.225 52.2148 148.157 75.3885 134.089 100.478C121.605 122.739 107.053 121.217 96.3744 112.183C91.8268 108.337 78.7153 111.71 67.5557 134.361C52.3365 165.251 -0.417035 146.515 9.20138 98.9902C13.8561 75.9916 -2.37162 75.2047 7.21833 52.2148L131.225 52.2148Z"   fill="#BACAC2" >
</path>
<path d="M55.5069 29.5437C48.387 35.9422 38.9179 36.931 34.3575 31.7523C29.7967 26.5737 31.8718 17.1888 38.9917 10.79C46.1117 4.39156 55.5807 3.40275 60.1412 8.58139C64.7019 13.7597 62.6269 23.1449 55.5069 29.5437Z"   fill="#BACAC2" >
</path>
<path d="M19.2872 30.2214C17.2209 27.9788 16.9016 24.9963 18.5739 23.5598C20.2462 22.1233 23.277 22.7769 25.3433 25.0195C27.4098 27.2621 27.7292 30.2447 26.0567 31.6811C24.3843 33.1177 21.3536 32.4641 19.2872 30.2214Z"   fill="#BACAC2" >
</path>
<path d="M129.255 20.8264C128.569 17.8402 129.787 15.0258 131.977 14.5403C134.167 14.0549 136.499 16.082 137.185 19.0683C137.872 22.0546 136.653 24.8689 134.464 25.3544C132.274 25.8399 129.942 23.8126 129.255 20.8264Z"   fill="#BACAC2" >
</path>
<path d="M70.3539 57.2043C70.1226 57.1475 69.8959 57.0718 69.6787 56.9772L69.2538 56.7927L68.489 56.4426C67.9742 56.2108 67.4785 55.9411 66.978 55.6903C65.977 55.1557 65.0042 54.5642 64.0692 53.9255C63.125 53.2773 62.2185 52.5723 61.3543 51.8153C60.9057 51.4226 60.5045 51.0252 60.0935 50.5946C59.8906 50.3817 59.6828 50.1593 59.4844 49.9275L59.187 49.5679C59.0831 49.4354 59.0029 49.336 58.8517 49.1326L62.3789 46.6108L62.5442 46.8047L62.7614 47.0556C62.9171 47.2212 63.0683 47.3962 63.2384 47.5571C63.5641 47.8977 63.9183 48.229 64.2772 48.5649C64.9947 49.2272 65.7456 49.8518 66.5294 50.4337C67.3274 51.0252 68.1632 51.5739 69.0083 52.1133C69.4663 52.3689 69.8677 52.6386 70.3116 52.8846L71.3362 53.4523C71.4826 53.5185 71.6525 53.528 71.8084 53.4808C72.1389 53.3814 74.037 51.4983 74.6414 50.8028C75.9823 49.2651 78.0126 47.2401 79.1082 45.5178L80.3548 47.2069C79.5804 49.3171 78.5558 51.3232 77.2998 53.1873C76.6246 54.1904 75.8125 55.0989 74.8917 55.889C74.3393 56.3574 73.7112 56.7312 73.036 57.0009C72.186 57.3416 71.2512 57.4125 70.3539 57.2043Z"   fill="#FFB573" >
</path>
<path d="M78.9312 45.776L81.1229 41.0835L83.2154 44.8394C83.2154 44.8394 81.8409 47.2094 80.3483 47.2046L78.9312 45.776Z"   fill="#FFB573" >
</path>
<path d="M83.5871 39.1313L85.7978 41.9793L83.2139 44.8319L81.1213 41.0804L83.5871 39.1313Z"   fill="#FFB573" >
</path>
<path d="M82.8147 46.1257L86.2929 46.1257C86.4958 46.1257 86.6658 45.9696 86.6846 45.7662L87.4161 37.4087C87.435 37.177 87.2557 36.9783 87.0244 36.9783L83.5462 36.9783C83.3432 36.9783 83.1733 37.1343 83.1545 37.3378L82.4229 45.6953C82.404 45.927 82.5834 46.1257 82.8147 46.1257Z"   fill="#655EB0" >
</path>
<g opacity="0.3">
<path d="M82.8504 45.2891L86.3367 45.2891L86.9886 37.8193L83.5023 37.8193L82.8504 45.2891Z"   fill="#FFFFFF" >
</path>
</g>
<path d="M83.0481 42.7738L80.4982 42.9679L80.4368 44.0468L81.1829 45.2062L81.4426 45.2157C82.0234 45.2299 82.5334 44.8135 82.6278 44.2314L83.2464 43.9143C83.5581 43.7534 83.8508 43.5499 84.1058 43.3086L84.2191 42.8969C84.0822 42.6697 83.813 42.5609 83.5628 42.6319L83.0481 42.7738Z"   fill="#FFB573" >
</path>
<path d="M57.9293 42.0275C59.6997 41.7059 72.1879 52.5576 72.1879 52.5576L68.4862 57.9977C68.4862 57.9977 54.8321 48.4705 55.2475 46.1714C55.6865 43.7684 55.3514 42.4958 57.9293 42.0275Z"   fill="#EC744A" >
</path>
<g opacity="0.2">
<path d="M59.5088 45.5132L59.3719 51.2089C60.7929 52.3112 65.9054 56.2423 65.9054 56.2423L59.5088 45.5132Z"   fill="#000000" >
</path>
</g>
<path d="M49.6036 154.789L53.7926 155.2L55.1196 145.468L50.9306 145.056L49.6036 154.789Z"   fill="#FFB573" >
</path>
<path d="M8.37205 97.6868L7.30017 101.774L16.3617 105.687L18.241 101.538L8.37205 97.6868Z"   fill="#FFB573" >
</path>
<path d="M58.0185 155.326C58.0374 155.51 57.9619 155.69 57.825 155.808C57.5134 155.997 57.1499 156.077 56.7912 156.035C56.3428 156.011 55.9038 155.945 55.4742 155.836C55.4317 155.831 55.3987 155.798 55.394 155.756C55.3892 155.713 55.4128 155.671 55.4506 155.652L55.4508 155.652C55.6407 155.562 57.3484 154.75 57.858 155.052C57.9571 155.109 58.0185 155.213 58.0185 155.326ZM55.7904 155.715C56.3473 155.436 56.9468 155.257 57.5651 155.186L57.551 155.191C57.6171 155.186 57.6784 155.2 57.7351 155.234C57.7775 155.257 57.8011 155.3 57.8011 155.342C57.8106 155.46 57.7681 155.578 57.6784 155.658C57.4188 155.88 56.7202 155.899 55.7904 155.715Z" fill-rule="evenodd"  fill="#2A6049" >
</path>
<path d="M56.9917 154.269C57.0578 154.752 56.0341 155.632 55.5246 155.844L55.4869 155.854C55.4586 155.854 55.4256 155.844 55.4114 155.821C55.3878 155.797 55.3784 155.759 55.3878 155.726C55.3973 155.679 55.5246 154.539 56.0671 154.118C56.2228 153.99 56.4304 153.943 56.6285 153.976C56.9021 154.014 56.9634 154.161 56.9917 154.269ZM56.1745 154.257C56.2783 154.181 56.4104 154.148 56.5379 154.167L56.5284 154.172L56.5898 154.158C56.7738 154.186 56.7786 154.257 56.7786 154.281C56.821 154.574 56.1226 155.269 55.5987 155.547C55.6506 155.07 55.8488 154.616 56.1745 154.257Z" fill-rule="evenodd"  fill="#2A6049" >
</path>
<path d="M49.2064 159.968C49.2348 159.968 49.2584 159.968 49.2866 159.968C50.9342 159.883 51.7274 159.76 53.814 159.689C55.0933 159.646 59.0259 160.11 60.7537 159.712C62.4815 159.315 62.1747 157.578 61.4194 157.588C58.9928 157.635 56.1934 156.05 54.7865 154.195C54.5835 154.044 53.8518 153.49 53.5874 153.504L49.7918 153.66C49.6219 153.66 49.4802 153.793 49.4661 153.963L48.5597 159.244C48.5407 159.622 48.8287 159.944 49.2064 159.968Z"   fill="#EC744A" >
</path>
<path d="M11.1552 99.0295C11.245 98.8875 11.2119 98.6983 11.0797 98.5895L7.14143 94.9655C6.83451 94.7432 6.40949 94.8094 6.1828 95.1169C6.16868 95.1359 6.15445 95.1595 6.14033 95.1832C5.31864 96.6166 4.99289 97.35 3.91616 99.1477C3.25986 100.25 0.733469 103.306 0.133752 104.976C-0.470671 106.646 1.14908 107.328 1.55046 106.689C2.83013 104.622 5.67284 103.122 7.99148 102.947C8.2417 102.857 9.09645 102.54 9.22867 102.308L11.1552 99.0295Z"   fill="#EC744A" >
</path>
<g opacity="0.2">
<path d="M55.1196 145.467L54.4397 150.487L50.2469 150.075L50.9268 145.061L55.1196 145.467Z"   fill="#000000" >
</path>
</g>
<g opacity="0.2">
<path d="M21.0196 102.549L19.0889 106.926L13.2542 104.342L14.7412 100.174L21.0196 102.549Z"   fill="#000000" >
</path>
</g>
<path d="M46.0086 39.5548C48.6384 39.7675 51.2495 40.165 53.8228 40.7375C56.0137 41.2672 56.5472 41.5557 57.9353 42.0242C58.7428 42.3033 59.7202 44.5172 60.6079 47.0385C63.0016 51.1116 60.0743 54.5553 57.6331 66.7415L41.8489 66.784C42.1039 60.2179 42.0803 54.9056 39.2803 41.991C39.0207 40.813 39.7618 39.6495 40.9376 39.3893C41.0886 39.3561 41.2445 39.3372 41.4004 39.3372C42.7034 39.3372 44.3467 39.3844 46.0086 39.5548Z"   fill="#EC744A" >
</path>
<path d="M58.2104 67.5634C58.2104 67.5634 67.0723 93.238 66.855 105.586C66.7324 112.659 66.2035 125.839 64.0743 135.106C62.3368 142.671 55.255 147.502 55.255 147.502L49.5752 147.166C49.5752 147.166 46.5112 135.623 47.0448 131.029C48.107 121.884 51.2514 115.015 50.8737 106.618C50.2693 92.8645 46.2091 67.3462 46.2091 67.3462L58.2104 67.5634Z"   fill="#2A6049" >
</path>
<path d="M48.4519 148.647L56.45 149.12L57.1819 146.711L48.2394 145.883L48.4519 148.647Z"   fill="#263238" >
</path>
<g opacity="0.2">
<path d="M49.4622 119.433C49.4716 119.424 49.4811 119.386 49.5047 119.391C54.5334 119.882 58.0134 112.611 57.1823 102.681L54.5145 77.3713L49.4622 119.433Z"   fill="#000000" >
</path>
</g>
<path d="M54.2403 67.3518C54.2403 67.3518 61.2804 112.498 46.6339 117.579C38.9046 120.511 32.4028 117.333 24.7015 113.917C20.2491 111.944 14.6868 106.603 14.6868 106.603L16.8258 100.77C16.8258 100.77 21.8828 99.1236 28.6156 100.174C36.1235 101.342 36.4398 103.471 39.1075 101.868C44.7168 87.9732 35.0655 76.9929 41.6243 67.3281L54.2403 67.3518Z"   fill="#2A6049" >
</path>
<path d="M17.2524 99.6616L14.3903 107.228L16.4967 108.841L19.8972 99.8367L17.2524 99.6616Z"   fill="#263238" >
</path>
<path d="M16.0692 58.8697C15.3561 59.9249 11.7383 59.2104 11.7383 59.2104L10.9684 54.72L15.408 56.5038L16.0692 58.8697Z"   fill="#FFB573" >
</path>
<path d="M11.8619 54.4915L12.5562 59.1572L9.88283 59.5547C9.58525 59.5783 9.31602 59.3796 9.25462 59.091L8.23439 55.7501C8.19663 55.5893 8.29583 55.4284 8.45642 55.3858L11.8619 54.4915Z"   fill="#FFB573" >
</path>
<path d="M13.6329 55.7852L13.0755 55.3879C12.6976 55.1183 12.433 54.721 12.3338 54.267C12.2252 53.7798 12.1496 53.2547 12.1401 52.8244L12.1354 52.6635C12.0976 52.3703 11.8709 52.1385 11.578 52.0959L11.2001 52.375C10.9591 52.8906 11.1339 53.4913 11.1009 53.8933L11.0395 54.6737L10.4301 54.9386L10.671 56.6035L12.1968 56.8731L13.6329 55.7852Z"   fill="#FFB573" >
</path>
<path d="M40.0416 41.1018L31.1085 53.4162L14.6914 56.6474L14.6914 59.3439C14.6914 59.3439 30.1122 60.4888 33.573 58.464C37.0341 56.4391 42.8511 44.1958 42.8511 44.1958L40.0416 41.1018Z"   fill="#FFB573" >
</path>
<path d="M37.6356 26.6904C38.1598 25.2475 39.5854 24.3772 40.8459 23.5019C41.7524 22.8728 43.5936 21.463 43.3764 20.1384C43.1686 18.8846 40.997 17.8012 39.9347 17.4417C36.1864 16.1834 31.8383 18.5158 30.1247 22.0827C28.4109 25.6496 29.0105 30.0256 30.9414 33.4839C31.5221 34.5246 32.2208 35.5087 32.6929 36.6061C33.165 37.7038 33.401 38.9621 33.0185 40.0926C32.6363 41.2234 32.2349 41.9472 30.8375 41.7674C30.8375 41.7674 30.8186 40.9917 31.371 41.0862C31.371 41.0862 30.2428 41.7155 29.7989 41.3038C30.3088 42.0987 31.6826 41.8101 32.1216 40.9728C32.7826 39.719 31.5693 38.0207 30.1531 38.0349C28.7367 38.049 27.5847 39.4825 27.632 40.9017C27.6792 42.3208 28.7178 43.5794 30.0114 44.1613C29.2465 44.3125 28.4062 43.8633 28.1041 43.1395C28.7462 44.8236 30.8423 45.5709 32.6126 45.2398C34.383 44.9085 35.8794 43.7685 37.2674 42.6191C39.137 41.0673 41.0867 39.1089 41.03 36.6772C40.9876 34.8652 39.8263 33.3089 38.849 31.7857C37.8718 30.2621 37.0173 28.3937 37.6356 26.6904Z" fill-rule="evenodd"  fill="#263238" >
</path>
<path d="M31.4869 59.5562L29.0131 52.9941L29.5796 53.0415C30.5143 53.1171 31.4114 52.644 31.8693 51.8208C33.7482 48.4522 38.6344 39.8983 40.0081 39.4771C41.9672 38.8953 43.9832 40.4659 44.7432 42.7842C45.3003 44.4922 39.5596 51.8161 36.897 55.9796C34.5366 59.6651 31.4869 59.5562 31.4869 59.5562Z"   fill="#EC744A" >
</path>
<path d="M7.77664 104.875C7.58317 104.837 7.42273 104.7 7.35194 104.516C7.35666 104.497 7.35666 104.464 7.35666 104.464C7.22925 103.982 7.73889 103.173 8.05978 102.72C8.08338 102.687 8.12113 102.672 8.15888 102.682C8.19663 102.691 8.22966 102.72 8.23439 102.762C8.23504 102.766 8.23586 102.772 8.23685 102.778C8.27152 102.997 8.50175 104.45 8.11169 104.799C8.02203 104.885 7.89462 104.913 7.77664 104.875ZM8.08642 103.05C8.08547 103.051 8.08453 103.052 8.08358 103.054C8.08296 103.049 8.08233 103.045 8.0817 103.04L8.08642 103.05ZM8.08358 103.054C7.6469 103.671 7.46859 104.189 7.55332 104.443C7.6005 104.566 7.70901 104.656 7.83638 104.68C7.88828 104.698 7.94489 104.694 7.98735 104.656C8.20275 104.468 8.16717 103.657 8.08358 103.054Z" fill-rule="evenodd"  fill="#2A6049" >
</path>
<path d="M9.49387 104.242C9.42309 104.389 9.26265 104.474 9.10221 104.441C8.67752 104.342 8.20092 103.471 8.07351 102.96C8.05464 102.908 8.03576 102.851 8.03105 102.799C8.02633 102.761 8.04048 102.728 8.06879 102.705C8.10184 102.686 8.13957 102.69 8.16789 102.709C8.21508 102.728 9.32871 103.211 9.52218 103.798C9.57881 103.944 9.56938 104.105 9.49387 104.242ZM8.28105 102.976C8.64399 103.161 9.23318 103.507 9.3463 103.866C9.34159 103.871 9.3463 103.881 9.35573 103.89C9.37929 103.975 9.36515 104.065 9.31802 104.141C9.25674 104.25 9.19547 104.25 9.14834 104.245C8.86081 104.184 8.41774 103.473 8.28105 102.976Z" fill-rule="evenodd"  fill="#2A6049" >
</path>
<path d="M41.7897 65.9847L41.3554 67.5213C41.2939 67.6395 41.4356 67.7624 41.6339 67.7624L57.9242 67.7388C58.08 67.7482 58.2074 67.6631 58.2169 67.5686L58.3679 66.0273C58.3727 65.9232 58.2406 65.8287 58.0705 65.8334L42.0683 65.8523C41.9551 65.8429 41.8512 65.8949 41.7897 65.9847Z"   fill="#407BFF" >
</path>
<path d="M41.7897 65.9847L41.3554 67.5213C41.2939 67.6395 41.4356 67.7624 41.6339 67.7624L57.9242 67.7388C58.08 67.7482 58.2074 67.6631 58.2169 67.5686L58.3679 66.0273C58.3727 65.9232 58.2406 65.8287 58.0705 65.8334L42.0683 65.8523C41.9551 65.8429 41.8512 65.8949 41.7897 65.9847Z"   fill="#FFFFFF" >
</path>
<path d="M44.8993 67.8993L44.4263 67.8993C44.3365 67.8946 44.2655 67.852 44.2702 67.7953L44.4831 65.7957C44.4878 65.739 44.5682 65.6917 44.6628 65.6917L45.1357 65.687C45.2256 65.6917 45.2965 65.7343 45.2918 65.7957L45.079 67.7906C45.0742 67.852 44.9891 67.904 44.8993 67.8993Z"   fill="#2A6049" >
</path>
<path d="M56.6615 67.8994L56.1885 67.8994C56.0986 67.8947 56.0277 67.8521 56.0324 67.7954L56.2452 65.8001C56.25 65.7387 56.3304 65.6914 56.4203 65.6914L56.8933 65.6914C56.9832 65.6961 57.0541 65.7387 57.0494 65.7954L56.8365 67.7907C56.8318 67.8521 56.7561 67.8994 56.6615 67.8994Z"   fill="#2A6049" >
</path>
<path d="M51.2731 67.8904L50.8001 67.8904C50.7102 67.8857 50.6393 67.8431 50.644 67.7864L50.8569 65.7911C50.8616 65.7296 50.942 65.6824 51.0319 65.6824L51.5049 65.6824C51.5948 65.6871 51.6657 65.7296 51.661 65.7864L51.4482 67.7816C51.4482 67.8431 51.3677 67.8904 51.2731 67.8904Z"   fill="#2A6049" >
</path>
<path d="M46.7453 30.9441C47.2457 33.5175 47.7367 38.1725 45.9946 39.5775C45.9946 39.5775 46.6886 42.2219 51.3578 42.9221C56.5132 43.7026 53.808 40.7601 53.808 40.7601C51.0037 39.6437 51.0698 37.6142 51.5561 35.741L46.7453 30.9441Z"   fill="#FFB573" >
</path>
<path d="M46.0098 39.5542C48.64 39.7623 50.8357 40.0082 53.4092 40.5854L56.9413 41.6355C57.5693 42.9033 56.5399 45.5097 53.5839 46.0064C53.5839 46.0064 46.1373 47.0376 43.9415 39.3555L46.0098 39.5542Z"   fill="#FFB573" >
</path>
<g opacity="0.2">
<path d="M48.706 32.9053L51.5518 35.7443C51.4338 36.1844 51.3536 36.6339 51.3158 37.0881C50.2445 36.7711 48.5172 35.5834 48.3993 34.4478C48.3945 33.9179 48.4984 33.3927 48.706 32.9053Z"   fill="#000000" >
</path>
</g>
<path d="M43.5894 27.6878C44.8501 31.6897 45.2986 33.4163 47.8858 34.9915C51.7526 37.3567 56.4032 34.9347 56.3417 30.6349C56.3041 26.7653 54.2502 20.8712 49.8594 20.2421C46.7386 19.7737 43.8302 21.9308 43.3628 25.0576C43.2354 25.9374 43.3109 26.841 43.5894 27.6878Z"   fill="#FFB573" >
</path>
<path d="M53.1213 27.0627C53.5699 27.7678 54.113 28.4114 54.7364 28.965C54.4389 29.2773 54.0186 29.4477 53.5888 29.424L53.1213 27.0627Z"   fill="#ED893E" >
</path>
<path d="M52.6764 31.568C52.837 31.5491 52.9977 31.5207 53.1536 31.4781C53.2055 31.4639 53.2339 31.4165 53.2244 31.3645L53.2244 31.3597C53.2103 31.3077 53.1583 31.2745 53.1063 31.284C52.2796 31.5159 51.3867 31.3313 50.7159 30.7918C50.6733 30.7539 50.6119 30.7586 50.5741 30.7965C50.5363 30.8391 50.5411 30.9006 50.5789 30.9385C51.1647 31.4213 51.9205 31.6485 52.6764 31.568Z"   fill="#263238" >
</path>
<path d="M42.215 19.6969C41.1714 20.3641 40.4867 21.5613 40.4442 22.801C40.4348 23.0376 40.4537 23.2789 40.5528 23.4918C40.6567 23.7048 40.8598 23.8798 41.0912 23.894C41.45 23.9129 41.7145 23.577 41.9128 23.2742C42.215 22.8057 42.5219 22.342 42.8242 21.8736C43.1216 21.4146 43.6175 20.8846 43.7827 20.3641C44.0849 19.4083 42.7769 19.3373 42.215 19.6969Z"   fill="#2A6049" >
</path>
<path d="M42.6673 20.6385C40.1553 23.5434 39.0362 31.5815 46.3787 33.824C47.6063 32.8494 45.6232 31.08 44.7827 28.8328C44.2302 27.3661 47.0303 24.6269 48.121 23.5008C49.2118 22.3795 50.2174 20.7521 51.7568 21.0123C52.1629 21.0786 52.5925 21.2157 52.9655 21.0455C54.1886 20.4919 53.5935 19.7585 52.9798 19.2429C52.0779 18.4906 50.8029 18.1452 49.6509 18.0222C47.1011 17.7479 44.3719 18.6705 42.6673 20.6385Z"   fill="#263238" >
</path>
<path d="M50.8185 19.6664C53.7643 22.1315 49.8603 22.193 47.8115 23.7543C45.8335 25.2541 47.2214 27.7098 43.8743 28.85C41.1411 29.6496 40.5084 29.1718 39.7532 28.6418C39.7532 28.6418 42.8499 28.2491 43.3079 24.7621C43.5393 22.9642 47.4479 16.8088 50.8185 19.6664Z"   fill="#263238" >
</path>
<path d="M43.1477 31.0516C43.6103 31.7188 44.3136 32.1778 45.1113 32.3293C46.1685 32.5138 46.5745 31.5437 46.211 30.5973C45.8665 29.7455 44.9083 28.624 43.8888 28.8653C43.1524 29.0546 42.7135 29.807 42.8975 30.5405C42.9447 30.7251 43.0297 30.9001 43.1477 31.0516Z"   fill="#FFB573" >
</path>
<path d="M50.3134 19.9164C50.8848 21.3736 52.5331 21.1796 53.7516 22.7031C54.5025 23.6352 55.9713 20.7302 53.9688 19.5805C51.9664 18.4261 49.4161 17.636 50.3134 19.9164Z"   fill="#263238" >
</path>
<path d="M48.5742 26.0697C48.6592 26.0792 48.7394 26.0319 48.7724 25.9514C49.1594 25.0848 50.3202 24.8717 50.3344 24.867C50.4429 24.8481 50.5137 24.7439 50.4948 24.635C50.4759 24.5261 50.3721 24.4551 50.2636 24.474C50.207 24.4835 48.881 24.7534 48.4138 25.7951C48.3666 25.8945 48.4091 26.0129 48.5082 26.0603L48.5742 26.0697Z"   fill="#263238" >
</path>
<path d="M54.7146 24.3242C54.7854 24.3289 54.8515 24.2958 54.8893 24.2342C54.9506 24.1443 54.927 24.0211 54.8373 23.9596C54.8373 23.9596 54.8373 23.9596 54.8326 23.9596C54.3039 23.595 53.6289 23.505 53.0199 23.7276C52.916 23.7702 52.8688 23.8886 52.916 23.9927C52.9585 24.0969 53.0765 24.1443 53.1804 24.0969C53.6619 23.9264 54.1953 24.0022 54.6107 24.2958C54.6438 24.31 54.6816 24.3242 54.7146 24.3242Z"   fill="#263238" >
</path>
<path d="M74.1271 50.2217L71.3641 51.7968L68.4877 57.9931C68.4877 57.9931 71.2649 59.7621 73.4517 58.3289C75.6432 56.8957 74.1271 50.2217 74.1271 50.2217Z"   fill="#407BFF" >
</path>
<path d="M74.1271 50.2217L71.3641 51.7968L68.4877 57.9931C68.4877 57.9931 71.2649 59.7621 73.4517 58.3289C75.6432 56.8957 74.1271 50.2217 74.1271 50.2217Z"   fill="#FFE2D3" >
</path>
<path d="M25.7417 52.1372L29.0135 53.0647L32.1155 59.4953C32.1155 59.4953 29.6179 61.8045 26.922 59.5994C24.9012 57.9432 25.7417 52.1372 25.7417 52.1372Z"   fill="#FFE1D3" >
</path>
<g opacity="0.5">
<path d="M25.7417 52.1372L29.0135 53.0647L32.1155 59.4953C32.1155 59.4953 29.6179 61.8045 26.922 59.5994C24.9012 57.9432 25.7417 52.1372 25.7417 52.1372Z"   fill="#FFE1D3" >
</path>
</g>
<path d="M54.5258 25.9292C54.7525 25.8866 54.9887 26.1419 55.0502 26.4917C55.1116 26.8415 54.9746 27.163 54.7478 27.2008C54.521 27.2386 54.2848 26.9881 54.2234 26.6383C54.1573 26.2979 54.299 25.9717 54.5258 25.9292Z"   fill="#263238" >
</path>
<path d="M55.2245 25.5818L54.4261 25.9758C54.908 26.3176 55.2245 25.5818 55.2245 25.5818Z"   fill="#263238" >
</path>
<path d="M50.5747 26.7429C50.8014 26.7004 51.0376 26.9556 51.099 27.3054C51.1605 27.6552 51.0235 27.9767 50.7967 28.0145C50.5699 28.0523 50.3337 27.8018 50.2723 27.452C50.2062 27.1116 50.3479 26.7855 50.5747 26.7429Z"   fill="#263238" >
</path>
<path d="M51.2735 26.3955L50.475 26.7895C50.9569 27.1313 51.2735 26.3955 51.2735 26.3955Z"   fill="#263238" >
</path>
<path d="M40.7902 17.7377C40.9177 17.7518 41.012 17.8655 41.0026 17.998C40.9884 18.1256 40.8799 18.2203 40.743 18.2108C32.8639 17.4254 30.0786 21.475 29.1345 25.0043C28.4499 27.5591 28.1761 30.5442 32.8733 36.4531C35.7059 40.0155 34.5587 42.3477 33.9309 43.1805C33.1566 44.2308 31.8442 44.841 30.5932 44.841C30.1448 44.841 29.701 44.7605 29.295 44.5951C27.8315 43.9942 27.1516 42.471 27.4255 40.4081C27.4444 40.2805 27.5624 40.1858 27.6899 40.2048C27.8173 40.2236 27.9118 40.342 27.8928 40.4698C27.6474 42.3007 28.2233 43.644 29.4744 44.1549C30.8246 44.7086 32.6184 44.1549 33.5579 42.8967C34.7381 41.3164 34.3557 39.074 32.5099 36.7466C27.6757 30.6672 28.0014 27.4361 28.6812 24.8813C29.6726 21.1723 32.576 16.924 40.7902 17.7377Z"   fill="#263238" >
</path>
<path d="M120.007 71.4651L95.8087 71.3537C92.8982 71.3408 90.5501 68.966 90.561 66.0495L90.8182 5.26055C90.8315 2.34191 93.2013 -0.0128637 96.1139 0L120.312 0.111486C123.223 0.124349 125.571 2.49914 125.56 5.41563L125.303 66.2046C125.292 69.1232 122.92 71.478 120.007 71.4651Z"   fill="#2A6049" >
</path>
<path d="M120.276 2.21201L115.584 2.18996C114.954 2.18795 114.442 2.71865 114.439 3.37835L114.435 4.23055C114.433 4.89025 113.921 5.42095 113.291 5.41894L104.145 5.3775C103.515 5.37483 103.009 4.83745 103.011 4.17775L103.016 3.32622C103.018 2.66652 102.51 2.13114 101.882 2.12713L100.231 2.11777L96.1262 2.09839C94.0877 2.0897 92.4264 3.73928 92.4178 5.78121L92.1671 65.1121C92.1585 67.1547 93.8023 68.8169 95.8408 68.8256L119.99 68.9372C122.029 68.9459 123.69 67.2964 123.699 65.2544L123.949 5.92358C123.96 3.88299 122.314 2.2207 120.276 2.21201Z"   fill="#FFFFFF" >
</path>
<ellipse cx="108.06051635742188" cy="35.94733810424805" rx="6.563140869140625" ry="6.576000213623047"   fill="#EC744A" >
</ellipse>
<path d="M111.466 32.8816C111.271 32.8058 109.747 33.8525 108.858 34.7879C107.903 35.7925 106.868 37.4324 106.612 37.4711C106.406 37.502 105.412 36.7783 105.13 36.6082C104.803 36.4108 104.441 36.3506 104.596 36.5961C104.656 36.6905 105.017 37.0799 105.489 37.621C106.052 38.2676 106.688 38.9962 106.762 39.0787C106.899 39.2304 107 39.1257 107.204 38.7289C107.487 38.1794 108.07 36.9751 108.89 35.876C109.71 34.7767 110.939 33.5638 111.232 33.3365C111.525 33.109 111.662 32.9574 111.466 32.8816Z"   fill="#FFFFFF" >
</path>
<path d="M111.131 100.469C104.334 99.4403 98.4359 106.524 98.4359 106.524L131.485 104.989C131.932 104.267 133.071 102.182 134.309 100.167C135.325 98.5148 136.934 96.2488 136.934 93.8724C136.934 91.2081 133.352 87.3622 131.485 85.53C129.727 84.322 127.442 83.2625 125.706 84.2512C122.444 86.1075 131.392 86.936 132.716 89.7413C133.197 90.7619 133.453 91.6604 133.583 92.39C133.107 92.2487 132.331 92.0784 131.604 92.1859C130.84 92.2998 129.552 93.245 128.768 93.8724C129.133 93.2526 129.468 92.4766 129.552 91.6284C129.755 89.5727 128.953 87.2532 127.671 88.7855C126.742 89.8958 127.159 92.827 127.46 94.3564C126.963 94.5511 126.464 94.7641 125.966 94.9947C124.057 88.2469 119.573 77.5192 110.84 77.1521C110.84 77.1521 107.394 78.4694 111.212 82.8011C114.46 86.4869 119.65 87.9634 124.569 95.6916C124.266 95.8544 123.963 96.0259 123.662 96.2048C121.303 93.9382 116.888 90.3393 113.194 90.9899C109.25 91.6848 117.814 95.1671 122.522 96.927C121.451 97.6513 120.42 98.4828 119.465 99.4403C119.465 99.4403 117.927 101.499 111.131 100.469Z"   fill="#2A6049" >
</path>
<path d="M93.0874 104.625C93.0874 104.625 83.6124 113.915 83.6124 116.36C88.0828 116.318 109.375 118.357 109.375 118.357C109.375 118.357 118.125 119.891 126.944 110.817C128.482 108.732 132.125 106.083 132.125 102.137C130.796 93.5564 124.205 95.912 124.205 95.912L109.813 101.918L93.0874 104.625Z"   fill="#2A6049" >
</path>
<path d="M97.122 123.881L72.8905 123.881C72.2606 123.881 71.7499 123.37 71.7499 122.738L71.7499 98.4595C71.7499 97.828 72.2606 97.3167 72.8905 97.3167L97.122 97.3167C97.7522 97.3167 98.2626 97.828 98.2626 98.4595L98.2626 122.738C98.2626 123.37 97.7522 123.881 97.122 123.881Z"   fill="#655EB0" >
</path>
<path d="M94.3772 119.186L75.6305 119.186C75.0623 119.186 74.6015 118.724 74.6015 118.155L74.6015 114.718C74.6015 114.148 75.0623 113.687 75.6305 113.687L94.3772 113.687C94.9456 113.687 95.4065 114.148 95.4065 114.718L95.4065 118.155C95.4065 118.724 94.9456 119.186 94.3772 119.186Z"   fill="#FFFFFF" >
</path>
<path d="M77.5289 117.541L77.5345 116.86L76.9219 117.228L76.6546 116.771L77.2617 116.442L76.6546 116.107L76.9219 115.65L77.5345 116.018L77.5289 115.337L78.0524 115.337L78.0415 116.018L78.6539 115.65L78.9267 116.107L78.3199 116.442L78.9267 116.771L78.6539 117.228L78.0415 116.866L78.0524 117.541L77.5289 117.541Z"   fill="#FFFFFF" >
</path>
<path d="M80.5308 117.228L80.2635 116.771L80.8703 116.442L80.2635 116.107L80.5308 115.649L81.1434 116.018L81.1376 115.337L81.6613 115.337L81.6502 116.018L82.2628 115.649L82.5356 116.107L81.9285 116.442L82.5356 116.771L82.2628 117.228L81.6502 116.866L81.6613 117.541L81.1376 117.541L81.1434 116.86L80.5308 117.228Z"   fill="#FFFFFF" >
</path>
<path d="M85.8671 117.228L85.2545 116.866L85.2656 117.541L84.742 117.541L84.7478 116.86L84.1352 117.228L83.8679 116.771L84.4747 116.442L83.8679 116.107L84.1352 115.649L84.7478 116.018L84.742 115.337L85.2656 115.337L85.2545 116.018L85.8671 115.649L86.14 116.107L85.5329 116.442L86.14 116.771L85.8671 117.228Z"   fill="#FFFFFF" >
</path>
<path d="M87.4767 116.771L88.0838 116.442L87.4767 116.107L87.744 115.65L88.3566 116.018L88.3511 115.337L88.8745 115.337L88.8636 116.018L89.476 115.65L89.7489 116.107L89.142 116.442L89.7489 116.771L89.476 117.228L88.8636 116.866L88.8745 117.541L88.3511 117.541L88.3566 116.86L87.744 117.228L87.4767 116.771Z"   fill="#FFFFFF" >
</path>
<path d="M91.3484 117.228L91.0811 116.771L91.688 116.442L91.0811 116.107L91.3484 115.649L91.961 116.018L91.9552 115.337L92.4789 115.337L92.4678 116.018L93.0804 115.649L93.3532 116.107L92.7462 116.442L93.3532 116.771L93.0804 117.228L92.4678 116.866L92.4789 117.541L91.9552 117.541L91.961 116.86L91.3484 117.228Z"   fill="#FFFFFF" >
</path>
<path d="M90.9489 105.536C90.9489 108.826 88.2872 111.492 85.0039 111.492C81.7206 111.492 79.059 108.826 79.059 105.536C79.059 102.246 81.7206 99.5793 85.0039 99.5793C88.2872 99.5793 90.9489 102.246 90.9489 105.536Z"   fill="#FFFFFF" >
</path>
<path d="M82.0429 105.841C82.0429 105.488 82.3281 105.202 82.6798 105.202L87.3281 105.202C87.6798 105.202 87.965 105.488 87.965 105.841L87.965 108.679C87.965 109.031 87.6798 109.317 87.3281 109.317L82.6798 109.317C82.3281 109.317 82.0429 109.031 82.0429 108.679L82.0429 105.841Z" fill-rule="evenodd"  fill="#EC744A" >
</path>
<path d="M82.8501 104.914L83.6702 104.749L83.5825 104.312C83.427 103.536 83.9305 102.778 84.7049 102.622C85.4793 102.466 86.2359 102.971 86.3911 103.747L86.4788 104.184L87.2988 104.019L87.2112 103.582C86.9649 102.353 85.7667 101.553 84.5403 101.8C83.3138 102.047 82.5165 103.248 82.7627 104.477L82.8501 104.914Z"   fill="#EC744A" >
</path>
<path d="M88.3195 122.062L81.693 122.062C81.5308 122.062 81.3996 121.93 81.3996 121.767C81.3996 121.604 81.5308 121.472 81.693 121.472L88.3195 121.472C88.4817 121.472 88.6129 121.604 88.6129 121.767C88.6129 121.93 88.4817 122.062 88.3195 122.062Z"   fill="#FFFFFF" >
</path>
<defs>
<mask id="mask--QDU2OAhYA" style="mask-type:alpha" maskUnits="userSpaceOnUse">
<path d="M131.111 52.416C131.111 52.416 148.042 69.5352 133.974 88.0698C121.492 104.514 106.938 103.39 96.2611 96.7167C91.7131 93.8749 78.601 96.3668 67.442 113.1C52.2234 135.919 -0.53041 122.079 9.0877 86.9705C13.7428 69.9807 -2.59076 69.3994 6.99887 52.416L131.111 52.416Z"   fill="#BACAC2" >
</path>
</mask>
</defs>
</svg>
