<svg xmlns="http://www.w3.org/2000/svg" xmlns:xlink="http://www.w3.org/1999/xlink" width="153" height="177" viewBox="0 0 153 177" fill="none">
<rect  x="0" y="57" width="153" height="120" rx="10"    fill="#FFE2D3" >
</rect>
<path d="M152.98 129.272C152.98 129.272 137.915 139.867 120.61 130.687L136.796 121.68L152.98 129.272Z"   fill="#140C07" >
</path>
<path d="M42.0692 58.47C42.0692 58.47 27.4108 85.8826 31.9995 93.98L48.69 84.741L42.0692 58.47Z"   fill="#140C07" >
</path>
<path d="M17.1233 11.5073C17.9756 10.3993 18.6293 12.1527 18.7462 12.7775C19.408 16.4284 16.4614 23.3704 16.4614 23.3704L35.3672 50.9988C36.5265 52.6926 37.8215 54.2899 39.2265 55.7646C40.1268 56.7163 41.0815 57.6207 42.0759 58.4698C43.7528 65.5792 43.582 79.2769 35.7619 86.3C33.9283 84.934 32.1616 83.3972 30.4654 81.7241C27.1237 78.4209 24.0491 74.5853 21.248 70.4925C21.248 70.4865 21.248 70.4865 21.248 70.4865C19.3665 67.739 17.6079 64.8708 15.9785 61.968C11.2669 53.5918 7.58649 44.9231 4.96737 37.9819C2.23352 30.7405 0.644418 25.3706 0.222311 24.1401C0.174364 23.9969 0.140972 23.9089 0.119995 23.8821L8.04841 1.18097C11.8808 -4.93786 14.0281 14.9201 14.0281 14.9201C15.0847 14.3014 16.3668 12.4858 17.1233 11.5073Z"   fill="#F9B384" >
</path>
<g opacity="0.6">
<path d="M35.7549 86.3C33.9216 84.9337 32.1557 83.3969 30.46 81.7245C36.3908 74.9461 40.9281 63.6895 42.0661 58.4749C43.7426 65.5802 43.5715 79.2777 35.7549 86.3Z"   fill="#E28B6D" >
</path>
</g>
<path d="M124.73 129.432L124.73 142.08L145.56 142.08L146.25 124.173L135.311 122.8L126.298 125.637L124.73 129.432Z"   fill="#F9B384" >
</path>
<path d="M77.0313 69.2451C77.2769 69.2392 77.5152 69.231 77.7536 69.224C94.0279 68.5921 101.287 73.5211 101.287 73.5211C104.969 74.248 114.568 77.9251 122.947 81.6033C126.642 83.2146 130.099 84.8329 132.718 86.1917C139.754 89.8546 144.861 96.369 146.755 104.058L152.99 129.275C142.662 127.27 134.521 127.398 127.647 128.758C125.153 129.255 122.827 129.908 120.618 130.689L118.538 138.119L114.434 152.81L111.769 162.355L109.342 171.022L107.978 175.91L34.715 175.91L46.3046 100.558L32 93.978C32.9207 92.6239 33.7652 91.0349 34.5505 89.2733C38.8928 79.5187 41.2255 64.7319 42.0712 58.47C46.1619 61.9767 50.9809 64.6015 56.2379 66.0977C62.4762 67.8722 69.9945 69.4095 77.0313 69.2451Z"   fill="#655EB0" >
</path>
<path d="M127.64 128.759C125.144 129.255 122.82 129.909 120.61 130.69L125.021 114.91L127.64 128.759Z"   fill="#5E589D" >
</path>
<g opacity="0.3">
<path d="M21.2381 70.49C19.3575 67.7423 17.8843 65.2608 14.35 58.9999C19.8944 57.1054 23.2066 65.2593 21.2381 70.49Z"   fill="#EE6F57" >
</path>
</g>
<path d="M119.33 135.28L114.43 152.817L111.765 162.363L46.0221 167.36L38.55 154.319C86.6149 153.332 106.727 146.5 119.33 135.28Z"   fill="#5E589D" >
</path>
<g opacity="0.6">
<path d="M4.96545 37.9901C2.23139 30.7483 0.642057 25.3782 0.220001 24.1473L12.5216 16.55C12.9917 23.4634 7.50752 33.3185 4.96545 37.9901Z"   fill="#E28B6D" >
</path>
</g>
<path d="M105.457 93.9633C106.631 93.3686 107.723 92.6161 108.765 91.7853L109.13 92.1728C108.19 93.174 107.101 94.0383 105.934 94.7877C104.751 95.513 103.478 96.1015 102.149 96.5335C99.4872 97.3913 96.6011 97.5634 93.8382 97.0565C91.0833 96.5447 88.4164 95.3647 86.306 93.493C85.2554 92.5618 84.3328 91.4776 83.631 90.2658C82.945 89.0477 82.4479 87.7212 82.24 86.3564L82.7611 86.24C83.4791 88.7847 85.0236 91.0072 87.0479 92.6128C89.08 94.2152 91.5278 95.2692 94.0813 95.7235C96.6347 96.1859 99.2936 96.0647 101.812 95.3935C103.074 95.0635 104.3 94.582 105.457 93.9633Z"   fill="#5E589D" >
</path>
<path d="M112.64 60.27L110.602 76.1581C109.846 82.0935 104.692 86.4983 98.693 86.3356C92.2653 86.1651 87.31 80.8976 87.31 74.7042C87.31 74.0983 87.3579 73.4797 87.4539 72.8613L87.8214 70.5369L89.2602 61.4752L97.3582 61.0607L112.64 60.27Z"   fill="#F9B384" >
</path>
<path d="M84.28 34.0982C84.5069 31.7565 85.6053 28.9653 86.8572 26.4338C89.2507 21.5952 93.8843 18.2365 99.2383 17.4664C107.284 16.3107 117.684 17.4378 123.349 25.1408C129.734 33.8257 124.428 51.1909 117.582 52.672C110.736 54.1516 84.28 34.0982 84.28 34.0982Z"   fill="#140C07" >
</path>
<path d="M105.24 64.3495C102.507 66.9314 96.2091 72.9732 87.45 72.8584L89.2562 61.4745L97.3535 61.0601L105.24 64.3495Z"   fill="#E28B6D" >
</path>
<path d="M115.38 46.0682L114.179 52.2942L113.49 55.8631L112.638 60.2675L108.472 62.7621C108.472 62.7621 107.334 63.5243 105.241 64.3466C105.241 64.3466 105.241 64.3532 105.235 64.3532C102.079 65.6044 96.7547 66.9913 89.9239 66.0935C89.4474 66.0333 88.9964 65.9232 88.5743 65.7747C85.3566 64.6798 83.7067 61.3023 82.9844 57.0937C82.4518 54.0015 82.4119 50.4594 82.6087 47.0402C82.9156 41.6766 83.8089 36.6123 84.2726 34.0987C91.4375 27.716 101.219 26.5538 108.472 25.1401L116.9 38.1905L115.68 44.5188L115.38 46.0682Z"   fill="#F9B384" >
</path>
<path d="M84.28 34.1014C95.6934 25.1441 111.069 34.2177 111.069 34.2177C111.069 34.2177 108.717 48.3256 113.262 47.162C117.808 45.9965 122.42 36.566 122.42 36.566L112.017 21.6101L89.2584 25.519L84.28 34.1014Z"   fill="#140C07" >
</path>
<path d="M112.669 47.6224C114.906 43.7073 119.26 42.4511 121.6 45.4209C123.941 48.3908 124.031 57.7354 112.52 55.7173L112.669 47.6224Z"   fill="#F9B384" >
</path>
<path d="M94.29 53.0176C93.2418 53.1548 92.1647 53.2808 91.0238 52.9507C90.7377 52.8757 90.4469 52.7258 90.1753 52.5168C89.918 52.2887 89.6655 51.9585 89.616 51.5869C89.5377 51.2216 89.6 50.8802 89.6815 50.5804C89.7646 50.2774 89.8556 50.0509 89.9628 49.7941C90.8017 47.7842 92.0481 46.0919 93.181 44.3501L93.539 44.5272C92.7991 46.5241 91.6534 48.3026 90.9055 50.1753C90.8192 50.4018 90.709 50.6618 90.6546 50.8611C90.5939 51.0589 90.562 51.2519 90.5955 51.3986C90.6003 51.5566 90.6914 51.6666 90.8017 51.7975C90.9391 51.9107 91.1101 52.0255 91.3258 52.1069C92.1839 52.4355 93.2466 52.5168 94.2804 52.6189L94.29 53.0176Z"   fill="#E28B6D" >
</path>
<path d="M101.189 44.9475C100.909 45.8867 100.14 46.4901 99.4695 46.2927C98.7994 46.0953 98.4827 45.1736 98.761 44.2327C99.0409 43.2934 99.8103 42.6901 100.48 42.8875C101.151 43.0849 101.467 44.0066 101.189 44.9475Z"   fill="#102048" >
</path>
<ellipse cx="87.92202880859375" cy="46.638046875" transform="rotate(-73.51999926442299 86.14202880859375 45.373046875)" rx="1.78" ry="1.265"   fill="#102048" >
</ellipse>
<path d="M105.089 42.6301C104.484 42.1587 103.894 41.7112 103.266 41.364C102.639 41.0184 101.979 40.7795 101.298 40.6919C100.617 40.5995 99.9154 40.6664 99.2201 40.8432C98.5232 41.0232 97.8407 41.3194 97.1486 41.6443L96.92 41.3162C97.4954 40.7715 98.1763 40.3192 98.9452 40.0166C99.7108 39.7108 100.576 39.5818 101.424 39.6853C102.275 39.7857 103.08 40.1265 103.748 40.6091C104.42 41.0901 104.968 41.6969 105.39 42.3674L105.089 42.6301Z"   fill="#102048" >
</path>
<path d="M86.7138 39.5848C87.2365 39.2417 87.8775 39.0423 88.5265 39.0503C89.1739 39.0567 89.8277 39.2593 90.3425 39.6581C90.8588 40.0458 91.2313 40.633 91.3 41.2472L90.9195 41.37C90.3632 40.4846 89.4537 40.0618 88.5233 40.065C88.0581 40.0666 87.5913 40.1751 87.1437 40.3713C86.6945 40.5691 86.2693 40.8515 85.8217 41.1754L85.51 40.9265C85.7754 40.3984 86.1862 39.9262 86.7138 39.5848Z"   fill="#102048" >
</path>
<path d="M89.19 55.9502L96.61 56.1066C96.61 56.1066 92.4963 61.6756 89.4762 56.4927L89.19 55.9502Z"   fill="#FFFFFF" >
</path>
<path d="M119.59 47.3964C119.011 47.2227 118.454 47.1048 117.944 47.1685C117.437 47.229 116.984 47.4409 116.592 47.7772C116.195 48.1117 115.872 48.5691 115.592 49.0678C115.314 49.5697 115.087 50.1146 114.844 50.6803L114.45 50.6038C114.455 49.9664 114.568 49.3243 114.797 48.7061C115.024 48.0878 115.384 47.4887 115.92 47.0139C116.45 46.5391 117.195 46.238 117.925 46.273C118.656 46.2969 119.304 46.6236 119.79 47.0522L119.59 47.3964Z"   fill="#E28B6D" >
</path>
<g opacity="0.3">
<ellipse cx="105.20498046875" cy="52.820107421875" rx="5.225" ry="5.21"   fill="#EE6F57" >
</ellipse>
</g>
<g opacity="0.3">
<path d="M86.65 52.1152C86.65 54.4465 85.1031 56.4239 82.9841 57.09C82.4519 53.9988 82.4119 50.458 82.6085 47.04C84.9257 47.577 86.65 49.6422 86.65 52.1152Z"   fill="#EE6F57" >
</path>
</g>
<path d="M46.0208 172.138C49.6822 169.283 55.4151 166.142 59.4038 163.6C61.6051 162.2 64.2304 161.588 66.8224 161.921C71.1374 162.471 77.3626 164.654 85.1065 162.377C86.4498 161.983 87.8133 161.677 89.1899 161.466L114.429 157.599L124.361 156.077L124.641 139.299L124.729 134.222C125.677 133.97 126.644 133.747 127.64 133.549C132.855 132.513 138.808 132.194 145.89 132.975L145.672 138.917L144.691 165.544L144.691 165.578C144.609 167.59 144.077 169.535 143.17 171.289C142.264 173.029 140.969 174.579 139.36 175.81L109.335 175.81L46.629 176.02C45.5112 176.02 44.3653 173.423 46.0208 172.138Z"   fill="#F9B384" >
</path>
<g opacity="0.6">
<path d="M145.89 128.185L145.672 134.13C142.005 132.844 127.838 128.825 124.73 129.429C125.678 129.177 126.645 128.954 127.641 128.756C132.856 127.723 138.808 127.404 145.89 128.185Z"   fill="#E28B6D" >
</path>
</g>
<g opacity="0.3">
<path d="M144.69 160.76L144.69 160.793C144.608 162.804 144.076 164.748 143.17 166.501C142.264 168.241 140.969 169.79 139.36 171.02L130.24 171.02C131.835 162.275 138.481 159.557 144.69 160.76Z"   fill="#EE6F57" >
</path>
</g>
<path d="M124.143 156.39C123.037 156.433 121.946 156.631 120.833 156.83L120.71 156.454C121.776 156.025 122.895 155.662 124.057 155.528C125.211 155.348 126.392 155.356 127.554 155.481C128.718 155.602 129.866 155.874 130.956 156.282C132.051 156.683 133.087 157.222 134.02 157.939L133.799 158.27C132.797 157.803 131.734 157.437 130.676 157.131C129.613 156.828 128.531 156.605 127.439 156.486C126.348 156.357 125.245 156.315 124.143 156.39Z"   fill="#E28B6D" >
</path>
</svg>
