<?xml version="1.0" standalone="no"?><!DOCTYPE svg PUBLIC "-//W3C//DTD SVG 1.1//EN" "http://www.w3.org/Graphics/SVG/1.1/DTD/svg11.dtd"><svg t="1727161324097" class="icon" viewBox="0 0 1024 1024" version="1.1" xmlns="http://www.w3.org/2000/svg" p-id="5806" xmlns:xlink="http://www.w3.org/1999/xlink" width="200" height="200"><path d="M663.04 625.152v-13.525333c0-44.501333-66.090667-80.597333-112.768-80.597334h-98.730667c-46.677333 0-112.768 36.096-112.768 80.64v40.277334c0 22.272 18.944 40.277333 42.282667 40.277333h235.818667a180.992 180.992 0 0 0 12.202666 159.146667H222.976c-69.504 0-94.464-32.128-94.976-89.344V233.386667c0.042667-53.290667 17.664-90.325333 89.173333-90.325334h89.6c-0.981333 4.266667-1.450667 8.618667-1.536 13.013334 0 33.024 25.728 65.621333 59.264 65.621333h269.994667c31.232 0 57.557333-32.597333 57.557333-65.621333 0-4.394667-0.469333-8.746667-1.365333-13.013334h88.106667l-0.128 0.128c66.090667 0 97.621333 36.906667 97.621333 90.325334v360.618666a189.952 189.952 0 0 0-84.053333-19.498666 189.44 189.44 0 0 0-129.194667 50.517333zM588.074667 128a42.538667 42.538667 0 0 1 28.202666 11.605333c7.253333 7.04 11.093333 16.469333 10.538667 26.112 1.152 19.413333-15.36 36.181333-37.12 37.632h-174.08c-22.186667-1.024-39.253333-17.834667-38.144-37.632-1.066667-19.797333 15.957333-36.693333 38.144-37.717333h172.458667z m204.672 485.888c80.469333 0 145.92 63.274667 145.92 141.056S873.216 896 792.746667 896s-145.92-63.274667-145.92-141.056 65.450667-141.056 145.92-141.056z m-64.725334 170.112H704a16 16 0 1 0 0 32h24.021333v8.021333a16 16 0 1 0 32 0v-8.021333h119.978667a16 16 0 1 0 0-32h-120.021333v-8.021333a16 16 0 1 0-32 0v8.021333zM832 704h-128a16 16 0 1 0 0 32h128v8.021333a16 16 0 1 0 32 0v-8.021333h16a16 16 0 1 0 0-32h-16v-8.021333a16 16 0 1 0-32 0v8.021333z m-373.376-253.568c-20.224 0-39.424-4.266667-56.618667-11.946667a102.826667 102.826667 0 0 0 100.821334 84.437334 102.997333 102.997333 0 0 0 102.528-103.424c0-22.101333-6.869333-42.624-18.602667-59.434667-16.725333 52.309333-67.797333 90.368-128.128 90.368z m-57.6-43.093333c16.554667 10.24 36.352 16.213333 57.6 16.213333 53.674667 0 98.005333-38.101333 104.832-87.466667a101.504 101.504 0 0 0-60.586667-20.010666 102.869333 102.869333 0 0 0-101.888 91.221333z" fill="#2a6049" p-id="5807"></path></svg>