<svg xmlns="http://www.w3.org/2000/svg" xmlns:xlink="http://www.w3.org/1999/xlink" width="390" height="226" viewBox="0 0 390 226" fill="none">
<g opacity="0.1219">
<path d="M36.19 140.8C33.3287 141.413 32.8031 141.939 32.19 144.8C31.5769 141.939 31.0513 141.413 28.19 140.8C31.0513 140.187 31.5769 139.661 32.19 136.8C32.8031 139.69 33.2995 140.187 36.19 140.8Z"   fill="#BACAC2" >
</path>
<path d="M366.19 59.7998C363.327 60.4314 362.822 60.9367 362.19 63.7998C361.558 60.9367 361.053 60.4314 358.19 59.7998C361.053 59.1682 361.558 58.6629 362.19 55.7998C362.822 58.6629 363.327 59.1682 366.19 59.7998Z"   fill="#BACAC2" >
</path>
<path d="M16 92C13.1369 92.6316 12.6316 93.1369 12 96C11.3684 93.1369 10.8631 92.6316 8 92C10.8631 91.3684 11.3684 90.8631 12 88C12.6316 90.8631 13.1369 91.3684 16 92Z"   fill="#BACAC2" >
</path>
<path d="M46.19 199.3C41.5162 200.306 40.6959 201.142 39.69 205.8C38.6841 201.126 37.8483 200.306 33.19 199.3C37.8638 198.294 38.6841 197.458 39.69 192.8C40.6959 197.458 41.5162 198.278 46.19 199.3Z"   fill="#BACAC2" >
</path>
<path d="M219.19 90.2998C214.516 91.3057 213.696 92.1415 212.69 96.7998C211.684 92.126 210.848 91.3057 206.19 90.2998C210.864 89.2939 211.684 88.4581 212.69 83.7998C213.696 88.4581 214.516 89.2784 219.19 90.2998Z"   fill="#BACAC2" >
</path>
<path d="M222.19 7.2998C217.518 8.31549 216.706 9.12799 215.69 13.7998C214.674 9.12799 213.862 8.31549 209.19 7.2998C213.862 6.28424 214.674 5.47174 215.69 0.799805C216.706 5.45315 217.537 6.28424 222.19 7.2998Z"   fill="#BACAC2" >
</path>
<path d="M323.19 118.3C318.522 119.305 317.714 120.131 316.69 124.8C315.685 120.131 314.859 119.323 310.19 118.3C314.859 117.294 315.667 116.468 316.69 111.8C317.696 116.468 318.522 117.276 323.19 118.3Z"   fill="#BACAC2" >
</path>
<path d="M140.19 94.2998C135.521 95.3054 134.713 96.1312 133.69 100.8C132.684 96.1312 131.859 95.3233 127.19 94.2998C131.859 93.2943 132.667 92.4684 133.69 87.7998C134.696 92.4684 135.521 93.2763 140.19 94.2998Z"   fill="#BACAC2" >
</path>
<circle cx="77.69000244140625" cy="128.2998046875" r="6.5"   fill="#BACAC2" >
</circle>
<circle cx="323.6900634765625" cy="77.2998046875" r="6.5"   fill="#BACAC2" >
</circle>
<circle cx="185.69000244140625" cy="45.2998046875" r="6.5"   fill="#BACAC2" >
</circle>
<circle cx="194.69000244140625" cy="113.2998046875" r="6.5"   fill="#BACAC2" >
</circle>
<circle cx="120.5" cy="174.5" r="6.5"   fill="#BACAC2" >
</circle>
<circle cx="14.5" cy="41.5" r="6.5"   fill="#BACAC2" >
</circle>
<path d="M288.19 59.2998C282.817 60.4644 281.87 61.4117 280.69 66.7998C279.525 61.4271 278.578 60.4799 273.19 59.2998C278.563 58.1352 279.51 57.188 280.69 51.7998C281.855 57.188 282.802 58.1352 288.19 59.2998Z"   fill="#BACAC2" >
</path>
<path d="M199 190.5C193.627 191.665 192.68 192.612 191.5 198C190.335 192.627 189.388 191.68 184 190.5C189.373 189.335 190.32 188.388 191.5 183C192.665 188.388 193.612 189.335 199 190.5Z"   fill="#BACAC2" >
</path>
<path d="M71 25.5C65.6273 26.6646 64.6801 27.6119 63.5 33C62.3354 27.6273 61.3881 26.68 56 25.5C61.3727 24.3354 62.32 23.3881 63.5 18C64.6646 23.3881 65.6118 24.3354 71 25.5Z"   fill="#BACAC2" >
</path>
<path d="M8.19 221.8C5.32104 222.434 4.82448 222.931 4.19 225.8C3.55552 222.931 3.05896 222.434 0.190002 221.8C3.05896 221.165 3.55552 220.669 4.19 217.8C4.82448 220.669 5.32104 221.165 8.19 221.8Z"   fill="#BACAC2" >
</path>
<circle cx="289.6900634765625" cy="181.2998046875" r="6.5"   fill="#BACAC2" >
</circle>
<path d="M311.19 17.7998C308.329 18.4356 307.826 18.9388 307.19 21.7998C306.554 18.9388 306.051 18.4356 303.19 17.7998C306.051 17.164 306.554 16.6608 307.19 13.7998C307.826 16.6608 308.329 17.164 311.19 17.7998Z"   fill="#BACAC2" >
</path>
<path d="M89.19 70.7998C86.3194 71.4351 85.8018 71.9292 85.19 74.7998C84.5547 71.9292 84.0606 71.4116 81.19 70.7998C84.0606 70.1645 84.5782 69.6704 85.19 66.7998C85.8253 69.6704 86.3194 70.188 89.19 70.7998Z"   fill="#BACAC2" >
</path>
<path d="M144.19 24.7998C141.329 25.4109 140.829 25.9387 140.19 28.7998C139.579 25.9387 139.051 25.4387 136.19 24.7998C139.051 24.1887 139.551 23.6609 140.19 20.7998C140.801 23.6887 141.301 24.1887 144.19 24.7998Z"   fill="#BACAC2" >
</path>
<path d="M389.19 123.8C386.308 124.417 385.808 124.917 385.19 127.8C384.572 124.917 384.072 124.417 381.19 123.8C384.072 123.182 384.572 122.682 385.19 119.8C385.808 122.653 386.308 123.182 389.19 123.8Z"   fill="#BACAC2" >
</path>
<path d="M361.19 189.3C356.53 190.31 355.701 191.125 354.69 195.8C353.68 191.14 352.865 190.31 348.19 189.3C352.85 188.289 353.68 187.475 354.69 182.8C355.701 187.46 356.515 188.289 361.19 189.3Z"   fill="#BACAC2" >
</path>
<path d="M260.19 118.8C257.322 119.431 256.809 119.913 256.175 122.8C255.541 119.943 255.058 119.431 252.19 118.8C255.058 118.168 255.571 117.687 256.175 114.8C256.809 117.687 257.292 118.198 260.19 118.8Z"   fill="#BACAC2" >
</path>
<path d="M179.19 131.8C176.322 132.431 175.809 132.913 175.175 135.8C174.541 132.943 174.058 132.431 171.19 131.8C174.058 131.168 174.571 130.687 175.175 127.8C175.809 130.687 176.292 131.198 179.19 131.8Z"   fill="#BACAC2" >
</path>
</g>
</svg>
