<?xml version="1.0" standalone="no"?><!DOCTYPE svg PUBLIC "-//W3C//DTD SVG 1.1//EN" "http://www.w3.org/Graphics/SVG/1.1/DTD/svg11.dtd"><svg t="1727169452902" class="icon" viewBox="0 0 1024 1024" version="1.1" xmlns="http://www.w3.org/2000/svg" p-id="15090" xmlns:xlink="http://www.w3.org/1999/xlink" width="200" height="200"><path d="M756.113331 79.358638c65.768885 0 118.869306 21.197678 162.148697 64.758993 6.910163 7.003802 33.216711 42.5776 25.642012 77.351942-8.001613 36.92502-97.593092 155.382516-172.334215 155.382516-10.788635 0-27.458409-2.335943-47.763999-22.611327-20.91374-20.827149-28.064546-32.562244-30.309871-37.110285 2.303723-11.488411 7.457902-41.84057-17.273898-69.180168-12.365396-13.701516-35.158967-30.105476-73.226787-30.105476-67.828946 0-168.083201 56.769463-255.310544 144.567703-71.648012 72.130303-147.599395 178.176087-145.662173 259.647142 0.850807 35.820482 16.489544 57.446081 29.400665 69.304013 14.365044 13.148743 32.185674 20.091126 51.523659 20.091126 3.093111 0 6.305033-0.184258 10.122085-0.615199 4.669873 2.399376 17.157101 10.25902 40.494382 33.487559 21.032551 20.948981 26.670028 41.285784 18.973498 67.890365C332.533315 881.091622 236.880465 951.37935 204.025222 958.569424c-4.787677 1.043119-9.698192 1.594885-14.6077 1.594885-28.793521 0-53.101428-18.617065-58.072355-23.653439C-31.773148 772.404814 144.49995 475.891049 302.708756 316.639124 448.186672 170.289257 621.908356 79.358638 756.113331 79.358638M756.113331 16.445242c-166.211425 0-358.177632 115.323103-497.838847 255.836132C53.937846 477.919897-96.633835 796.304937 86.853502 980.932053c12.12274 12.229469 51.523659 42.148673 102.562006 42.148673 9.030636 0 18.367361-0.924309 28.004134-3.071967 75.769139-16.591238 290.044611-191.079153 160.330286-320.349448-45.82577-45.650574-68.192427-52.103617-81.954354-52.103617-5.272989 0-9.273292 0.983714-12.850709 0.983714-3.209908 0-6.06137-0.79845-9.211873-3.623733-30.004789-27.405045 16.244874-135.29139 118.382987-238.079942 80.984737-81.409637 165.600254-126.076497 210.878285-126.076497 11.881091 0 21.036579 3.073981 26.734468 9.401165 14.243213 15.728349-29.52149 29.613115 49.824059 108.748228 29.155995 28.99993 60.616721 40.857863 92.016027 40.857863 110.322976 0 220.827189-145.55041 233.678904-204.9025 14.062983-64.758993-28.308209-120.851837-42.555449-135.107133C904.563533 41.205234 833.096758 16.445242 756.113331 16.445242L756.113331 16.445242z" fill="#2a6049" p-id="15091"></path></svg>