<?xml version="1.0" standalone="no"?><!DOCTYPE svg PUBLIC "-//W3C//DTD SVG 1.1//EN" "http://www.w3.org/Graphics/SVG/1.1/DTD/svg11.dtd"><svg t="1725266670503" class="icon" viewBox="0 0 1024 1024" version="1.1" xmlns="http://www.w3.org/2000/svg" p-id="7684" xmlns:xlink="http://www.w3.org/1999/xlink" width="200" height="200"><path d="M551.805076 398.037459l-77.282131 0 0 86.316901L390.057205 484.35436l0 80.805374 84.46574 0 0 88.156806 77.282131 0 0-86.877673 84.475973 0L636.281049 484.35436l-84.475973 0L551.805076 398.037459zM665.206846 348.755032c-43.918255 0-93.906763-42.544979-149.906172-45.716204l0-0.301875c-1.090844 0-2.182712 0.11461-3.263323 0.146333-1.081635-0.031722-2.162246-0.146333-3.255137-0.146333l0 0.301875c-56.008618 3.171226-105.998149 45.716204-149.925614 45.716204-24.27794 0-39.488363 67.559699-36.546358 142.211932 2.329045-59.07649 16.261359-106.300025 36.546358-106.300025 43.927465 0 93.916996-42.534745 149.925614-45.705971l0-0.312108c1.091868 0 2.173502 0.124843 3.255137 0.155543 1.081635-0.030699 2.172479-0.155543 3.263323-0.155543l0 0.312108c56.000432 3.171226 105.987916 45.705971 149.906172 45.705971 20.305465 0 34.226522 47.223534 36.535101 106.300025C704.704418 416.315754 689.493995 348.755032 665.206846 348.755032zM511.994372 128.721687c-211.663724 0-383.278313 171.604356-383.278313 383.278313S300.330648 895.278313 511.994372 895.278313c211.685213 0 383.28957-171.603333 383.28957-383.278313S723.679585 128.721687 511.994372 128.721687zM662.606625 672.946622c-65.605184 63.152319-126.386502 81.19116-146.890488 85.579097l0 1.309832c0 0-1.299599-0.166799-3.679809-0.582261-2.369977 0.415462-3.659343 0.582261-3.659343 0.582261l0-1.309832c-20.534685-4.387937-81.305771-22.426779-146.890488-85.579097-88.811722-85.473697-73.455989-354.280886-22.052249-354.280886 49.500391 0 105.822141-50.76929 168.942737-54.355979l0-0.342808c1.225921 0 2.432399 0.135076 3.659343 0.177032 1.226944-0.041956 2.442632-0.177032 3.679809-0.177032l0 0.342808c63.089897 3.586688 119.42188 54.355979 168.911014 54.355979C736.051357 318.665737 751.39788 587.472925 662.606625 672.946622z" fill="#ffffff" p-id="7685"></path></svg>