<?xml version="1.0" standalone="no"?><!DOCTYPE svg PUBLIC "-//W3C//DTD SVG 1.1//EN" "http://www.w3.org/Graphics/SVG/1.1/DTD/svg11.dtd"><svg t="1725878339077" class="icon" viewBox="0 0 1024 1024" version="1.1" xmlns="http://www.w3.org/2000/svg" p-id="53082" width="64" height="64" xmlns:xlink="http://www.w3.org/1999/xlink"><path d="M285.866667 403.2m-198.4 0a198.4 198.4 0 1 0 396.8 0 198.4 198.4 0 1 0-396.8 0Z" fill="#71E2BD" p-id="53083"></path><path d="M645.696 742.293333l33.194667-33.194666 188.565333 188.586666-33.194667 33.173334z" fill="#71E2BD" p-id="53084"></path><path d="M358.4 631.466667c-166.4 0-298.666667-134.4-300.8-298.666667 0-78.933333 29.866667-153.6 85.333333-209.066667 55.466667-55.466667 130.133333-85.333333 209.066667-85.333333h2.133333c164.266667 0 298.666667 134.4 298.666667 298.666667 0 78.933333-29.866667 153.6-85.333333 209.066666-55.466667 55.466667-130.133333 85.333333-209.066667 85.333334z m-6.4-552.533334c-68.266667 0-130.133333 25.6-179.2 72.533334-46.933333 46.933333-74.666667 110.933333-72.533333 179.2 0 140.8 115.2 256 256 256h2.133333c68.266667 0 130.133333-25.6 179.2-72.533334 46.933333-46.933333 74.666667-110.933333 72.533333-179.2 0-138.666667-115.2-253.866667-258.133333-256 2.133333 0 2.133333 0 0 0zM832 962.133333c-12.8 0-23.466667-4.266667-32-12.8l-162.133333-162.133333c-17.066667-17.066667-17.066667-46.933333 0-66.133333l81.066666-81.066667c17.066667-17.066667 46.933333-17.066667 66.133334 0l162.133333 162.133333c17.066667 17.066667 17.066667 46.933333 0 66.133334l-81.066667 81.066666c-10.666667 8.533333-23.466667 12.8-34.133333 12.8z m-81.066667-292.266666h-2.133333l-81.066667 81.066666c-2.133333 2.133333-2.133333 4.266667 0 4.266667l162.133334 162.133333c2.133333 2.133333 4.266667 2.133333 4.266666 0l81.066667-81.066666c2.133333-2.133333 2.133333-4.266667 0-4.266667l-162.133333-162.133333h-2.133334z" fill="#1E1E1E" p-id="53085"></path><path d="M834.133333 814.933333l-70.4-70.4c-2.133333-2.133333-2.133333-6.4 0-8.533333l10.666667-10.666667c2.133333-2.133333 6.4-2.133333 8.533333 0l70.4 70.4c2.133333 2.133333 2.133333 6.4 0 8.533334l-10.666666 10.666666c-2.133333 2.133333-4.266667 2.133333-8.533334 0zM691.2 718.933333c-6.4 0-10.666667-2.133333-14.933333-6.4l-153.6-153.6c-8.533333-8.533333-8.533333-21.333333 0-29.866666s21.333333-8.533333 29.866666 0l153.6 153.6c8.533333 8.533333 8.533333 21.333333 0 29.866666-4.266667 4.266667-8.533333 6.4-14.933333 6.4zM356.266667 565.333333c-125.866667 0-230.4-102.4-230.4-230.4S228.266667 104.533333 356.266667 104.533333c125.866667 0 230.4 102.4 230.4 230.4s-104.533333 230.4-230.4 230.4z m0-439.466666c-115.2 0-209.066667 93.866667-209.066667 209.066666s93.866667 209.066667 209.066667 209.066667 209.066667-93.866667 209.066666-209.066667-93.866667-209.066667-209.066666-209.066666z" fill="#1E1E1E" p-id="53086"></path></svg>