<svg xmlns="http://www.w3.org/2000/svg" xmlns:xlink="http://www.w3.org/1999/xlink" width="18" height="18" viewBox="0 0 18 18" fill="none">
<path   fill-rule="evenodd"  fill="#2A6049"  d="M10.1666 0C10.3313 0 10.4713 0.12006 10.4956 0.28242L10.6639 1.37664C10.8016 2.26872 11.5573 2.91564 12.4616 2.91564C12.82 2.91564 13.1693 2.80692 13.4726 2.60172L14.3519 2.00628C14.4844 1.91664 14.6617 1.93374 14.7746 2.0466L16.1887 3.46068C16.3049 3.57696 16.3193 3.76092 16.222 3.8934L15.5673 4.78638C15.1974 5.29074 15.113 5.93892 15.3416 6.52068C15.5696 7.10298 16.0727 7.52058 16.6867 7.63866L17.7293 7.83936C17.8866 7.86942 18 8.00694 18 8.1666L18 10.1666C18 10.3309 17.8799 10.471 17.7174 10.4956L16.623 10.6639C16.0054 10.759 15.4874 11.1577 15.2374 11.7306C14.9873 12.3041 15.0473 12.955 15.3979 13.4726L15.9934 14.3519C16.083 14.4844 16.0661 14.6617 15.953 14.7746L14.539 16.1887C14.423 16.3046 14.2393 16.3197 14.1064 16.222L13.4784 15.7617C13.163 15.5304 12.7949 15.4084 12.413 15.4084C11.6366 15.4084 10.7696 15.937 10.6144 16.9477L10.496 17.7174C10.471 17.8799 10.3313 18 10.1666 18L8.1666 18C8.00694 18 7.86942 17.8864 7.83936 17.7296L7.63866 16.6867C7.47468 15.8337 6.72336 15.2147 5.85234 15.2147C5.47002 15.2147 5.10138 15.3371 4.78674 15.5677L3.89358 16.2223C3.76074 16.3201 3.57732 16.3049 3.46104 16.189L2.04696 14.7749C1.93392 14.6621 1.917 14.4844 2.00664 14.3523L2.60208 13.473C2.95272 12.9553 3.01266 12.3043 2.76264 11.731C2.51298 11.158 1.99458 10.7593 1.377 10.6643L0.2826 10.496C0.12006 10.471 0 10.3309 0 10.1666L0 8.1666C0 8.00694 0.1134 7.86942 0.27 7.83972L1.31274 7.63902C1.92672 7.52094 2.42928 7.10298 2.65806 6.5214C2.8863 5.93928 2.80206 5.29092 2.43234 4.78692L1.77768 3.89394C1.68066 3.76092 1.6947 3.57732 1.81098 3.46104L3.22542 2.04696C3.33828 1.93392 3.51558 1.91736 3.64806 2.00664L4.78368 2.77596C5.08626 2.98134 5.43636 3.0897 5.79474 3.0897C6.66504 3.0897 7.41636 2.47068 7.58034 1.61766L7.83936 0.27072C7.86942 0.11358 8.00694 0 8.1666 0L10.1666 0ZM6.3334 9.16633C6.3334 7.60398 7.60438 6.333 9.16673 6.333C10.7291 6.333 12.0001 7.60398 12.0001 9.16633C12.0001 10.7287 10.7291 11.9997 9.16673 11.9997C7.60438 11.9997 6.3334 10.7287 6.3334 9.16633Z">
</path>
<path d="M9.16337 7.33301C8.15236 7.33301 7.33337 8.15233 7.33337 9.16301C7.33337 10.1737 8.15236 11.003 9.16337 11.003C10.1744 11.003 11.0034 10.1737 11.0034 9.16301C11.0034 8.15233 10.1744 7.33301 9.16337 7.33301Z"   fill="#2A6049" >
</path>
</svg>
