<?xml version="1.0" standalone="no"?><!DOCTYPE svg PUBLIC "-//W3C//DTD SVG 1.1//EN" "http://www.w3.org/Graphics/SVG/1.1/DTD/svg11.dtd"><svg t="1724919781732" class="icon" viewBox="0 0 1024 1024" version="1.1" xmlns="http://www.w3.org/2000/svg" p-id="21459" data-spm-anchor-id="a313x.search_index.0.i20.5b803a81qCYI4G" xmlns:xlink="http://www.w3.org/1999/xlink" width="200" height="200"><path d="M25.88 585.11a338.21 338.03 0 1 0 676.42 0 338.21 338.03 0 1 0-676.42 0Z" fill="#fbf4df" p-id="21460" data-spm-anchor-id="a313x.search_index.0.i14.5b803a81qCYI4G" class=""></path><path d="M890.06 825.24c-35.51 0-80-9.18-132.17-27.29l-2.24-0.78-640.34-405.62 8.92-16.76c54.61-102.59 112.49-187.39 172-252l0.12-0.13C319 98.45 361.22 53.47 407.32 61.09c27.79 4.59 51.05 27.16 69.15 67.08l0.37 0.82 0.3 0.85c19.74 56.31 64.93 60 117.25 64.24q5.06 0.41 10.07 0.84c14.1-1 26-2.8 36.55-4.37 22.81-3.39 40.82-6.06 56.63 4 12.56 8 22.19 21.79 28.33 62.92l0.06 0.48c4.17 33.26 20.42 91.31 53.52 154.46 27.08 51.68 75.49 125 152.27 180.65l0.66 0.48 0.62 0.53c42.11 36 66.09 70 73.32 103.84 6.86 32.13-1.74 63.56-25.55 93.43l-0.54 0.68-0.6 0.63c-20.43 21.64-50.6 32.59-89.67 32.59zM773.54 760c62.42 21.42 142.53 39.17 175.87 5.1 15.81-20.1 21.19-38.76 17-58.63-5.17-24.25-25.12-51.41-59.28-80.74C841.51 578 784.88 510.85 743.26 431.45c-35.55-67.84-53.18-131.28-57.85-168.13-4.5-30-9.28-33.87-9.82-34.21-2.9-1.85-17.74 0.35-28.58 2-11.1 1.65-24.92 3.7-41.32 4.83l-1.6 0.11-1.6-0.14c-3.78-0.33-7.59-0.64-11.43-1-28.36-2.31-57.68-4.69-84.81-16.33-32.53-14-54.61-38.26-67.46-74.28-8.34-18.2-21.63-40.07-38.17-42.8-24.47-4-58.09 31.77-74.3 49.06-53.92 58.57-106.66 134.79-156.92 226.77z" fill="#f4ea2a" p-id="21461" data-spm-anchor-id="a313x.search_index.0.i19.5b803a81qCYI4G" class=""></path><path d="M609.55 339.25h112.64a20.48 20.48 0 0 1 20.48 20.48 20.48 20.48 0 0 1-20.48 20.48H609.55a20.48 20.48 0 0 1-20.48-20.48 20.48 20.48 0 0 1 20.48-20.48z" fill="#f4ea2a" p-id="21462"></path><path d="M650.51 431.41h112.64a20.48 20.48 0 0 1 20.48 20.48 20.48 20.48 0 0 1-20.48 20.48H650.51A20.48 20.48 0 0 1 630 451.89a20.48 20.48 0 0 1 20.51-20.48zM701.71 513.34h112.64a20.48 20.48 0 0 1 20.48 20.48 20.48 20.48 0 0 1-20.48 20.48H701.71a20.48 20.48 0 0 1-20.48-20.48 20.48 20.48 0 0 1 20.48-20.48z" fill="#f4ea2a" p-id="21463"></path><path d="M793.64 819.85c-97.76 0-177.69-13.85-238.1-41.32l-0.8-0.36-0.77-0.43C451.48 720.07 295.48 616.92 142.17 514l-1.14-0.76-1-0.91c-43-38.09-49-86.48-16.9-136.25l34.41 22.22c-11.57 17.92-15.89 34.36-12.85 48.86 2.44 11.58 9.67 22.89 21.51 33.62C423 653.18 516.32 709.52 573.28 741.6c63.72 28.74 152.85 41 264.92 36.34l1.69 40.92q-23.74 0.99-46.25 0.99z" fill="#f4ea2a" p-id="21464" data-spm-anchor-id="a313x.search_index.0.i13.5b803a81qCYI4G" class=""></path></svg>