<svg xmlns="http://www.w3.org/2000/svg" xmlns:xlink="http://www.w3.org/1999/xlink" width="32" height="32" viewBox="0 0 32 32" fill="none">
<path d="M21.7493 4.2469C21.5413 4.54353 21.4912 4.9231 21.6146 5.26374C22.5399 7.82001 22.8933 11.074 21.599 12.59C20.5847 13.7758 17.2487 13.7758 15.9934 13.7758C14.7382 13.7758 11.4021 13.7758 10.3889 12.5911C9.09354 11.074 9.44694 7.81888 10.3722 5.26374C10.4957 4.9231 10.4456 4.54353 10.2376 4.2469C10.0296 3.95009 9.69012 3.77344 9.32792 3.77344L7.10608 3.77344C6.63463 3.77382 6.21475 4.07176 6.05858 4.51689C5.96522 4.7814 3.77344 11.0774 3.77344 16.0675C3.94207 18.3956 4.64423 20.6537 5.82518 22.6668L26.1617 22.6668C27.3426 20.6537 28.0448 18.3956 28.2134 16.0675C28.2134 11.0774 26.0217 4.7814 25.9283 4.51689C25.7721 4.07176 25.3522 3.77382 24.8808 3.77344L22.659 3.77344C22.2968 3.77344 21.9573 3.95009 21.7493 4.2469Z"   fill="#F8C060" >
</path>
<path d="M6 24.8801L6 27.1024C6 27.716 6.4974 28.2135 7.1112 28.2135L24.8888 28.2135C25.5026 28.2135 26 27.716 26 27.1024L26 24.8801L6 24.8801Z"   fill="#FDEDD0" >
</path>
</svg>
