<svg xmlns="http://www.w3.org/2000/svg" xmlns:xlink="http://www.w3.org/1999/xlink" width="19" height="18" viewBox="0 0 19 18" fill="none">
<path   fill-rule="evenodd"  fill="#FECE46"  d="M10.2601 0.684948C10.8708 0.300406 11.5646 -0.136502 12.3238 0.110191C13.0872 0.354815 13.4 1.12284 13.6748 1.80009C13.786 2.07329 13.9719 2.52929 14.0956 2.61826C14.2178 2.70651 14.702 2.73832 14.9906 2.75845C15.6878 2.80483 16.5555 2.86216 17.0379 3.51623C17.5225 4.17452 17.3068 5.01051 17.1332 5.68304L17.1328 5.68441C17.0605 5.96301 16.9398 6.4314 16.9865 6.57681C17.0325 6.71701 17.3989 7.01268 17.6192 7.1899C18.1586 7.62576 18.8308 8.16839 18.8308 8.99734C18.8308 9.83349 18.1499 10.3923 17.6021 10.8413C17.3865 11.0185 17.0238 11.3151 16.9773 11.449C16.9345 11.5878 17.052 12.0487 17.1229 12.3269L17.1236 12.3299C17.3048 13.0411 17.5102 13.8485 17.0317 14.5011C16.5562 15.1505 15.7283 15.2055 14.9984 15.2551C14.7057 15.2743 14.2163 15.3069 14.0926 15.3975C13.9664 15.4897 13.7828 15.9424 13.6723 16.2126C13.3976 16.8861 13.088 17.6485 12.3268 17.9062C11.5561 18.1688 10.8293 17.7088 10.2465 17.3398L10.2423 17.3372C9.9792 17.17 9.58074 16.9177 9.41503 16.9177C9.24537 16.9177 8.84069 17.1731 8.57216 17.3419C8.0852 17.6469 7.54513 17.9875 6.95987 17.9875C6.81205 17.9875 6.66027 17.9657 6.50699 17.9154C5.74283 17.6701 5.43081 16.9022 5.15531 16.225C5.04402 15.9516 4.85892 15.4965 4.73595 15.4075C4.61299 15.3184 4.12979 15.2875 3.84092 15.2673C3.14606 15.221 2.28229 15.1636 1.79138 14.518C1.2885 13.8547 1.50908 13.0108 1.68635 12.3325L1.68705 12.3299C1.76012 12.0534 1.88158 11.5906 1.83487 11.4481C1.78742 11.3041 1.43641 11.0138 1.20385 10.8219C0.667741 10.3792 0 9.8272 0 8.99663C0 8.16066 0.680922 7.60258 1.22796 7.15341C1.44432 6.97619 1.80701 6.6798 1.85371 6.5459C1.89663 6.40754 1.77909 5.94885 1.70704 5.66768L1.70419 5.65655C1.52209 4.95126 1.3159 4.1525 1.77593 3.50455C2.24426 2.84509 3.07771 2.78937 3.81305 2.73976C4.10719 2.72035 4.5998 2.68782 4.72277 2.59741C4.84875 2.5052 5.03254 2.05316 5.14307 1.7823C5.41763 1.11043 5.72739 0.347086 6.48929 0.0893416C7.26342 -0.172357 7.99801 0.298377 8.58553 0.678523C8.85161 0.850353 9.25252 1.10954 9.41503 1.10954C9.5847 1.10954 9.99012 0.854128 10.2594 0.685353L10.2601 0.684948Z">
</path>
<path d="M5.75295 8.83596C5.44875 9.13866 5.44875 9.62787 5.75295 9.93051L7.83069 11.9973C7.97617 12.1436 8.17466 12.2241 8.38087 12.2241C8.39173 12.2241 8.40344 12.2241 8.41437 12.2226C8.63374 12.2133 8.8369 12.1126 8.97695 11.9462L12.9922 7.17017C13.2677 6.84198 13.2249 6.35428 12.895 6.08024C12.5635 5.80473 12.074 5.84958 11.7993 6.17707L8.32947 10.3036L6.85331 8.83596C6.54904 8.53332 6.05722 8.53332 5.75295 8.83596Z"   fill="#FFFFFF" >
</path>
</svg>
